<svg width="77" height="77" viewBox="0 0 77 77" fill="none" xmlns="http://www.w3.org/2000/svg">
<g style="mix-blend-mode:luminosity" filter="url(#filter0_d_1_473)">
<mask id="path-1-inside-1_1_473" fill="white">
<path d="M18 38.3832C18 27.1259 27.2427 18 38.5 18C49.7573 18 59 27.1259 59 38.3832C59 49.6405 49.7573 58.7663 38.5 58.7663C27.2427 58.7663 18 49.6405 18 38.3832Z"/>
</mask>
<path d="M18 38.3832C18 27.1259 27.2427 18 38.5 18C49.7573 18 59 27.1259 59 38.3832C59 49.6405 49.7573 58.7663 38.5 58.7663C27.2427 58.7663 18 49.6405 18 38.3832Z" fill="#D9D9D9"/>
<path d="M18 38.3832C18 27.1259 27.2427 18 38.5 18C49.7573 18 59 27.1259 59 38.3832C59 49.6405 49.7573 58.7663 38.5 58.7663C27.2427 58.7663 18 49.6405 18 38.3832Z" fill="url(#paint0_linear_1_473)"/>
<path d="M18 38.3832C18 27.1259 27.2427 18 38.5 18C49.7573 18 59 27.1259 59 38.3832C59 49.6405 49.7573 58.7663 38.5 58.7663C27.2427 58.7663 18 49.6405 18 38.3832Z" fill="#151517"/>
<path d="M18 38.3832C18 27.1259 27.2427 18 38.5 18C49.7573 18 59 27.1259 59 38.3832C59 49.6405 49.7573 58.7663 38.5 58.7663C27.2427 58.7663 18 49.6405 18 38.3832Z" fill="url(#paint1_linear_1_473)"/>
<path d="M18 37.3733C18 26.0515 27.1782 16.8733 38.5 16.8733C49.8218 16.8733 59 26.0515 59 37.3733V38.3832C59 27.7481 49.8741 19.1267 38.6168 19.1267H38.3832C27.1259 19.1267 18 27.7481 18 38.3832V37.3733ZM59 58.7663H18H59ZM18 58.7663V18V58.7663ZM59 18V58.7663V18Z" fill="#FF72DB" fill-opacity="0.5" mask="url(#path-1-inside-1_1_473)"/>
<path opacity="0.4" d="M39.2266 42.2545H36.2232C36.2232 41.558 36.3799 40.9051 36.6933 40.2958C37.0067 39.669 37.3897 39.1379 37.8424 38.7027C38.2951 38.25 38.7478 37.8234 39.2004 37.423C39.6531 37.0051 40.0362 36.5525 40.3496 36.065C40.6629 35.5775 40.8196 35.0813 40.8196 34.5763C40.8196 33.8625 40.5672 33.3054 40.0623 32.9049C39.5574 32.5045 38.8783 32.3042 38.0252 32.3042C37.2069 32.3042 36.5018 32.5132 35.9098 32.931C35.3179 33.3489 34.8913 33.9408 34.6301 34.7069L32.0446 33.2444C32.5147 32.0257 33.2895 31.0768 34.369 30.3978C35.4658 29.7187 36.7107 29.3792 38.1036 29.3792C39.6705 29.3792 41.0112 29.8232 42.1254 30.7112C43.2571 31.5991 43.823 32.8266 43.823 34.3935C43.823 35.1074 43.6663 35.7864 43.3529 36.4306C43.0395 37.0748 42.6565 37.6232 42.2038 38.0759C41.7511 38.5286 41.2984 38.9725 40.8458 39.4078C40.3931 39.8257 40.01 40.2783 39.6967 40.7658C39.3833 41.2533 39.2266 41.7496 39.2266 42.2545ZM37.7379 44.396C38.2777 44.396 38.7391 44.5875 39.1221 44.9705C39.5051 45.3536 39.6967 45.815 39.6967 46.3547C39.6967 46.8944 39.5051 47.3558 39.1221 47.7388C38.7391 48.1219 38.2777 48.3134 37.7379 48.3134C37.1982 48.3134 36.7368 48.1219 36.3538 47.7388C35.9708 47.3558 35.7792 46.8944 35.7792 46.3547C35.7792 45.815 35.9621 45.3536 36.3277 44.9705C36.7107 44.5875 37.1808 44.396 37.7379 44.396Z" fill="white"/>
</g>
<defs>
<filter id="filter0_d_1_473" x="0.200001" y="0.200001" width="76.6" height="76.3663" filterUnits="userSpaceOnUse" color-interpolation-filters="sRGB">
<feFlood flood-opacity="0" result="BackgroundImageFix"/>
<feColorMatrix in="SourceAlpha" type="matrix" values="0 0 0 0 0 0 0 0 0 0 0 0 0 0 0 0 0 0 127 0" result="hardAlpha"/>
<feOffset/>
<feGaussianBlur stdDeviation="8.9"/>
<feComposite in2="hardAlpha" operator="out"/>
<feColorMatrix type="matrix" values="0 0 0 0 0.882353 0 0 0 0 0 0 0 0 0 0.658824 0 0 0 0.25 0"/>
<feBlend mode="normal" in2="BackgroundImageFix" result="effect1_dropShadow_1_473"/>
<feBlend mode="normal" in="SourceGraphic" in2="effect1_dropShadow_1_473" result="shape"/>
</filter>
<linearGradient id="paint0_linear_1_473" x1="39.0231" y1="18" x2="39.0231" y2="58.1772" gradientUnits="userSpaceOnUse">
<stop stop-color="#FFB500"/>
<stop offset="1" stop-color="#F3BA2F"/>
</linearGradient>
<linearGradient id="paint1_linear_1_473" x1="38.5" y1="58.7663" x2="38.5" y2="18" gradientUnits="userSpaceOnUse">
<stop stop-color="#FF60D7"/>
<stop offset="1" stop-color="#E100A8"/>
</linearGradient>
</defs>
</svg>
