<svg width="46" height="47" viewBox="0 0 46 47" fill="none" xmlns="http://www.w3.org/2000/svg">
<g filter="url(#filter0_b_1_1631)">
<ellipse cx="23.0561" cy="23.3725" rx="14.0561" ry="14.0244" fill="#FB48FF" fill-opacity="0.1"/>
<path d="M36.9347 23.3725C36.9347 31.0195 30.7214 37.2194 23.0561 37.2194C15.3908 37.2194 9.17752 31.0195 9.17752 23.3725C9.17752 15.7255 15.3908 9.52564 23.0561 9.52564C30.7214 9.52564 36.9347 15.7255 36.9347 23.3725Z" stroke="url(#paint0_linear_1_1631)" stroke-opacity="0.3" stroke-width="0.355048"/>
</g>
<path fill-rule="evenodd" clip-rule="evenodd" d="M16.609 19.4238C16.4798 19.5527 16.4797 19.5634 16.4744 20.7226L16.4744 20.7239V21.8951C16.9267 22.0563 17.1421 22.2013 17.2982 22.3464C17.449 22.4914 17.5944 22.6956 17.6482 22.8353C17.6967 22.9696 17.7397 23.2113 17.7397 23.3725C17.7397 23.5337 17.6967 23.7754 17.6482 23.9098C17.5944 24.0494 17.449 24.2536 17.2982 24.3986C17.1421 24.5437 16.9267 24.6888 16.7544 24.7479L16.4744 24.8499V27.1869L16.7436 27.4556H20.2436C20.2436 26.4509 20.2597 26.365 20.3513 26.2736C20.4105 26.2145 20.5074 26.1662 20.5666 26.1662C20.6259 26.1662 20.7228 26.2145 20.782 26.2736C20.8736 26.365 20.8897 26.4509 20.8897 26.9183V27.4556H29.1335C29.3974 27.1869 29.3974 27.1869 29.3974 26.0158V26.0157V24.8499C28.9451 24.6888 28.7297 24.5437 28.5735 24.3986C28.4227 24.2536 28.2774 24.0494 28.2235 23.9098C28.1751 23.7754 28.132 23.5337 28.132 23.3725C28.132 23.2113 28.1751 22.9696 28.2235 22.8353C28.2774 22.6956 28.4227 22.4914 28.5735 22.3464C28.7297 22.2013 28.9451 22.0563 29.1174 21.9972L29.3974 21.8951V19.5581L29.1281 19.2895H20.8897C20.8897 20.2941 20.8736 20.3801 20.782 20.4714C20.7228 20.5305 20.6259 20.5788 20.5666 20.5788C20.5074 20.5788 20.4105 20.5305 20.3513 20.4714C20.2597 20.3801 20.2436 20.2941 20.2436 19.8267V19.2895H16.7382L16.609 19.4238ZM22.5655 21.4008C22.6355 21.3363 22.7647 21.245 22.8563 21.202C22.9478 21.1537 23.1255 21.1161 23.2601 21.1161C23.3947 21.1161 23.5994 21.1644 23.7178 21.2181C23.8363 21.2665 23.9978 21.3901 24.0786 21.4814C24.1647 21.5781 24.2509 21.7446 24.2832 21.8575C24.3101 21.9649 24.337 22.1153 24.337 22.1906C24.337 22.2658 24.2724 22.4538 24.1917 22.615C24.084 22.8191 23.9763 22.9427 23.8255 23.0287C23.7071 23.0931 23.524 23.1683 23.4217 23.1845C23.314 23.2059 23.1417 23.1952 23.0178 23.1576C22.8994 23.12 22.7217 23.0287 22.6194 22.9481C22.5171 22.8729 22.3878 22.7117 22.334 22.5935C22.2801 22.4753 22.2371 22.2819 22.2371 22.1637C22.2371 22.0455 22.2855 21.8521 22.3394 21.7339C22.3932 21.6157 22.4955 21.4653 22.5655 21.4008ZM24.3694 23.265C25.037 22.2765 25.6347 21.4116 25.6993 21.3471C25.7586 21.2772 25.8609 21.2235 25.9201 21.2235C25.9847 21.2235 26.0763 21.2665 26.1301 21.3202C26.184 21.3686 26.227 21.4706 26.2216 21.5459C26.2216 21.6318 25.7963 22.3087 25.0586 23.3994C24.4178 24.3449 23.8363 25.1991 23.7663 25.2958C23.6801 25.4104 23.5922 25.4677 23.5024 25.4677C23.4271 25.4677 23.3194 25.4194 23.2601 25.3603C23.2009 25.3012 23.1524 25.2099 23.1524 25.1615C23.1524 25.1078 23.6963 24.2536 24.3694 23.265ZM20.3255 21.4814C20.2394 21.5674 20.2286 21.6641 20.234 22.1691C20.2394 22.4914 20.2663 22.7815 20.2878 22.8138C20.3094 22.846 20.3848 22.9051 20.4601 22.9373C20.5732 22.9964 20.6163 22.991 20.7294 22.8997C20.8586 22.803 20.864 22.7654 20.8801 22.212C20.8855 21.7608 20.8748 21.5996 20.8101 21.5083C20.7563 21.4277 20.6755 21.3847 20.5732 21.3847C20.4925 21.3847 20.3794 21.4277 20.3255 21.4814ZM25.4947 23.77C25.5863 23.7056 25.7424 23.625 25.8447 23.5928C25.947 23.5659 26.1247 23.5498 26.2324 23.5605C26.3455 23.5766 26.534 23.6357 26.6524 23.6948C26.7709 23.7539 26.9109 23.8668 26.9647 23.9527C27.024 24.0333 27.094 24.1837 27.1316 24.2858C27.164 24.3879 27.1909 24.5491 27.1909 24.635C27.1909 24.7263 27.1424 24.8929 27.0886 25.0111C27.0347 25.1293 26.9324 25.2797 26.8624 25.3442C26.7924 25.4086 26.6416 25.5 26.5286 25.543C26.4209 25.5913 26.2324 25.6289 26.114 25.6289C25.9955 25.6289 25.807 25.5806 25.694 25.5268C25.5863 25.4731 25.4409 25.3657 25.3763 25.2958C25.3117 25.2314 25.2201 25.0809 25.177 24.9735C25.1286 24.8607 25.0909 24.678 25.0909 24.5705C25.0909 24.4577 25.1447 24.2589 25.2147 24.13C25.2793 23.9957 25.4032 23.8345 25.4947 23.77ZM20.4332 23.8184C20.374 23.8506 20.3094 23.9044 20.2878 23.9366C20.2663 23.9635 20.2448 24.2589 20.2448 24.5813C20.2394 25.0809 20.2555 25.1884 20.3363 25.2636C20.3901 25.3173 20.4978 25.3603 20.5786 25.3603C20.6755 25.3603 20.7563 25.3173 20.8101 25.2421C20.8694 25.1508 20.8909 24.9681 20.8909 24.5437V24.5437C20.8909 23.9742 20.8909 23.9635 20.7401 23.856C20.6594 23.7915 20.584 23.7486 20.5678 23.7486C20.5517 23.7486 20.4925 23.7808 20.4332 23.8184Z" fill="#FB48FF"/>
<path d="M22.8688 22.1261C22.8634 22.0616 22.9172 21.9542 22.9872 21.8843C23.0572 21.8145 23.1811 21.7608 23.2672 21.7608C23.3588 21.7608 23.4719 21.8145 23.5526 21.8951C23.628 21.9703 23.6872 22.067 23.6872 22.11C23.6872 22.153 23.6549 22.2497 23.6226 22.3249C23.5849 22.4001 23.4934 22.4861 23.418 22.5183C23.3265 22.5559 23.2349 22.5559 23.138 22.5129C23.0519 22.4861 22.9657 22.4108 22.9334 22.3517C22.9011 22.2926 22.8742 22.1906 22.8688 22.1261Z" fill="#FB48FF"/>
<path d="M25.798 24.3879C25.8357 24.3288 25.9111 24.259 25.9757 24.2321C26.0349 24.2052 26.1426 24.1945 26.218 24.2106C26.2934 24.2267 26.3957 24.2912 26.4495 24.3557C26.5034 24.4201 26.5464 24.5276 26.5411 24.592C26.5411 24.6619 26.4818 24.7747 26.4064 24.8499C26.3257 24.9359 26.218 24.9842 26.1103 24.9842C25.9972 24.9842 25.9165 24.9413 25.8411 24.8392C25.7765 24.7532 25.728 24.6458 25.7334 24.5974C25.7334 24.5437 25.7603 24.4524 25.798 24.3879Z" fill="#FB48FF"/>
<g style="mix-blend-mode:hard-light" opacity="0.75" filter="url(#filter1_f_1_1631)">
<ellipse cx="23.0561" cy="23.3725" rx="14.0561" ry="14.0244" fill="#FB48FF" fill-opacity="0.1"/>
<path fill-rule="evenodd" clip-rule="evenodd" d="M24.9035 22.1361H21.4732C21.266 22.1361 21.0979 21.9683 21.0979 21.7616C21.0979 21.5549 21.266 21.3871 21.4732 21.3871H24.9035C25.1107 21.3871 25.2788 21.5549 25.2788 21.7616C25.2788 21.9683 25.1107 22.1361 24.9035 22.1361ZM27.1764 23.6449L27.1749 22.6159C27.1749 18.8243 26.5789 18.1577 23.1886 18.1577C19.7983 18.1577 19.2023 18.8243 19.2023 22.6159L19.2008 23.6449C19.1963 26.4534 19.1943 27.5049 19.6242 27.9338C19.7633 28.0731 19.9479 28.1435 20.1726 28.1435C20.6505 28.1435 21.1819 27.6906 21.7449 27.2108C22.2433 26.7859 22.8083 26.3046 23.1886 26.3046C23.5689 26.3046 24.1339 26.7859 24.6323 27.2108C25.1953 27.6906 25.7267 28.1435 26.2046 28.1435C26.4293 28.1435 26.6139 28.0731 26.7531 27.9338C27.1829 27.5049 27.1809 26.4534 27.1764 23.6449Z" fill="#FB48FF"/>
</g>
<defs>
<filter id="filter0_b_1_1631" x="0.15931" y="0.507424" width="45.7936" height="45.7302" filterUnits="userSpaceOnUse" color-interpolation-filters="sRGB">
<feFlood flood-opacity="0" result="BackgroundImageFix"/>
<feGaussianBlur in="BackgroundImageFix" stdDeviation="4.42034"/>
<feComposite in2="SourceAlpha" operator="in" result="effect1_backgroundBlur_1_1631"/>
<feBlend mode="normal" in="SourceGraphic" in2="effect1_backgroundBlur_1_1631" result="shape"/>
</filter>
<filter id="filter1_f_1_1631" x="0.265822" y="0.613936" width="45.5805" height="45.5171" filterUnits="userSpaceOnUse" color-interpolation-filters="sRGB">
<feFlood flood-opacity="0" result="BackgroundImageFix"/>
<feBlend mode="normal" in="SourceGraphic" in2="BackgroundImageFix" result="shape"/>
<feGaussianBlur stdDeviation="4.36709" result="effect1_foregroundBlur_1_1631"/>
</filter>
<linearGradient id="paint0_linear_1_1631" x1="23.0561" y1="9.34811" x2="23.0561" y2="37.3969" gradientUnits="userSpaceOnUse">
<stop stop-color="#FB48FF"/>
<stop offset="0.627766" stop-color="#FB48FF" stop-opacity="0"/>
</linearGradient>
</defs>
</svg>
