<svg width="79.000000" height="79.000000" viewBox="0 0 79 79" fill="none" xmlns="http://www.w3.org/2000/svg" xmlns:xlink="http://www.w3.org/1999/xlink">
	<desc>
			Created with Pixso.
	</desc>
	<defs>
		<filter id="filter_1_246_dd" x="0.000000" y="0.000000" width="79.000000" height="79.000000" filterUnits="userSpaceOnUse" color-interpolation-filters="sRGB">
			<feFlood flood-opacity="0" result="BackgroundImageFix"/>
			<feGaussianBlur in="BackgroundImage" stdDeviation="8.3"/>
			<feComposite in2="SourceAlpha" operator="in" result="effect_backgroundBlur_1"/>
			<feBlend mode="normal" in="SourceGraphic" in2="effect_backgroundBlur_1" result="shape"/>
		</filter>
		<linearGradient x1="39.500000" y1="0.000000" x2="39.500000" y2="79.000000" id="paint_linear_1_246_0" gradientUnits="userSpaceOnUse">
			<stop stop-color="#FB48FF"/>
			<stop offset="0.627766" stop-color="#FB48FF" stop-opacity="0.000000"/>
		</linearGradient>
	</defs>
	<g filter="url(#filter_1_246_dd)">
		<circle id="Ellipse 2236" cx="39.500000" cy="39.500000" r="39.500000" fill="#FB48FF" fill-opacity="0.100000"/>
		<circle id="Ellipse 2236" cx="39.500000" cy="39.500000" r="39.000000" stroke="url(#paint_linear_1_246_0)" stroke-opacity="0.300000" stroke-width="1.000000"/>
	</g>
	<mask id="mask_1_248" fill="white">
		<path id="Subtract" d="M21.0006 32.0363C21.0157 28.7717 21.0159 28.7413 21.3789 28.3783L21.7421 28L31.5928 28L31.5928 29.5132C31.5928 30.8296 31.6381 31.0717 31.8954 31.3289C32.0618 31.4954 32.3341 31.6316 32.5006 31.6316C32.6671 31.6316 32.9395 31.4954 33.1058 31.3289C33.3632 31.0717 33.4084 30.8296 33.4084 28L56.5598 28L57.3164 28.7566L57.3164 35.3388L56.5295 35.6263C56.0454 35.7928 55.4401 36.2013 55.0012 36.6099C54.5776 37.0184 54.1691 37.5934 54.0177 37.9868C53.8816 38.3651 53.7605 39.0461 53.7605 39.5C53.7605 39.9539 53.8816 40.6349 54.0177 41.0132C54.1691 41.4066 54.5776 41.9816 55.0012 42.3901C55.4401 42.7987 56.0454 43.2072 57.3164 43.6612L57.3164 46.9448C57.3164 50.2434 57.3164 50.2434 56.575 51L33.4084 51L33.4084 49.4868C33.4084 48.1704 33.3632 47.9283 33.1058 47.6711C32.9395 47.5046 32.6671 47.3684 32.5006 47.3684C32.3341 47.3684 32.0618 47.5046 31.8954 47.6711C31.6381 47.9283 31.5928 48.1704 31.5928 51L21.7572 51L21.0006 50.2434L21.0006 43.6612L21.7875 43.3737C22.2716 43.2072 22.877 42.7987 23.3158 42.3901C23.7394 41.9816 24.1479 41.4066 24.2993 41.0132C24.4354 40.6349 24.5565 39.9539 24.5565 39.5C24.5565 39.0461 24.4354 38.3651 24.2993 37.9868C24.1479 37.5934 23.7394 37.0184 23.3158 36.6099C22.877 36.2013 22.2716 35.7928 21.0006 35.3388L21.0006 32.0402L21.0006 32.0363ZM38.1185 33.9467C38.3153 33.7651 38.6785 33.5079 38.9357 33.3868C39.1929 33.2506 39.6923 33.1447 40.0706 33.1447C40.4489 33.1447 41.0238 33.2809 41.3567 33.4322C41.6897 33.5684 42.1436 33.9164 42.3706 34.1736C42.6127 34.446 42.8547 34.9151 42.9456 35.2328C43.0212 35.5355 43.0969 35.9592 43.0969 36.171C43.0969 36.3829 42.9153 36.9125 42.6884 37.3664C42.3857 37.9414 42.083 38.2894 41.6594 38.5316C41.3265 38.7131 40.812 38.925 40.5245 38.9704C40.2219 39.0309 39.7377 39.0006 39.3896 38.8947C39.0568 38.7888 38.5574 38.5316 38.2699 38.3046C37.9824 38.0927 37.6193 37.6388 37.4679 37.3059C37.3167 36.973 37.1956 36.4283 37.1956 36.0954C37.1956 35.7625 37.3318 35.2177 37.483 34.8848C37.6344 34.5519 37.9219 34.1282 38.1185 33.9467ZM43.1876 39.1973C45.064 36.4131 46.7437 33.9769 46.9252 33.7953C47.0917 33.5986 47.3792 33.4473 47.5455 33.4473C47.7272 33.4473 47.9844 33.5684 48.1357 33.7197C48.287 33.8559 48.4081 34.1434 48.3929 34.3552C48.3929 34.5974 47.1975 36.5039 45.1245 39.5756C43.3239 42.2388 41.6897 44.6447 41.4929 44.9171C41.2509 45.2399 41.0037 45.4013 40.7515 45.4013C40.5397 45.4013 40.2371 45.2651 40.0706 45.0986C39.9041 44.9322 39.7679 44.675 39.7679 44.5388C39.7679 44.3875 41.2963 41.9816 43.1876 39.1973ZM31.8239 34.1736C31.5818 34.4158 31.5515 34.6881 31.5667 36.1105C31.5818 37.0184 31.6573 37.8355 31.7179 37.9263C31.7784 38.0171 31.9904 38.1835 32.2021 38.2743C32.5199 38.4407 32.641 38.4257 32.9587 38.1684C33.3219 37.8961 33.337 37.7901 33.3824 36.2316C33.3976 34.9605 33.3673 34.5065 33.1857 34.2493C33.0344 34.0223 32.8074 33.9013 32.5199 33.9013C32.293 33.9013 31.9752 34.0223 31.8239 34.1736ZM46.3502 40.6197C46.6074 40.4381 47.0463 40.2112 47.3337 40.1204C47.6212 40.0447 48.1206 39.9993 48.4232 40.0296C48.741 40.075 49.2705 40.2414 49.6035 40.4079C49.9364 40.5743 50.3298 40.8921 50.4811 41.1342C50.6476 41.3611 50.8442 41.7849 50.9502 42.0723C51.041 42.3599 51.1166 42.8138 51.1166 43.0559C51.1166 43.3131 50.9805 43.7822 50.8291 44.1151C50.6779 44.448 50.3903 44.8717 50.1936 45.0533C49.9968 45.2349 49.5732 45.4921 49.2554 45.6132C48.9528 45.7493 48.4232 45.8552 48.0903 45.8552C47.7574 45.8552 47.2278 45.7191 46.91 45.5677C46.6074 45.4164 46.1989 45.1138 46.0173 44.9171C45.8357 44.7355 45.5785 44.3118 45.4574 44.0092C45.3212 43.6914 45.2153 43.1769 45.2153 42.8743C45.2153 42.5566 45.3666 41.9967 45.5634 41.6335C45.7449 41.2552 46.0929 40.8013 46.3502 40.6197ZM32.1265 40.7559C31.9601 40.8467 31.7784 40.998 31.7179 41.0888C31.6573 41.1644 31.5969 41.9967 31.5969 42.9046C31.5818 44.3118 31.6272 44.6144 31.8541 44.8263C32.0054 44.9776 32.3081 45.0986 32.535 45.0986C32.8074 45.0986 33.0344 44.9776 33.1857 44.7657C33.3522 44.5085 33.4127 43.9941 33.4127 42.7986C33.4127 41.1947 33.4127 41.1644 32.989 40.8618C32.762 40.6802 32.5502 40.5592 32.5048 40.5592C32.4594 40.5592 32.293 40.65 32.1265 40.7559Z" clip-rule="evenodd" fill="" fill-opacity="1.000000" fill-rule="evenodd"/>
	</mask>
	<path id="Subtract" d="M21.0006 32.0363C21.0157 28.7717 21.0159 28.7413 21.3789 28.3783L21.7421 28L31.5928 28L31.5928 29.5132C31.5928 30.8296 31.6381 31.0717 31.8954 31.3289C32.0618 31.4954 32.3341 31.6316 32.5006 31.6316C32.6671 31.6316 32.9395 31.4954 33.1058 31.3289C33.3632 31.0717 33.4084 30.8296 33.4084 28L56.5598 28L57.3164 28.7566L57.3164 35.3388L56.5295 35.6263C56.0454 35.7928 55.4401 36.2013 55.0012 36.6099C54.5776 37.0184 54.1691 37.5934 54.0177 37.9868C53.8816 38.3651 53.7605 39.0461 53.7605 39.5C53.7605 39.9539 53.8816 40.6349 54.0177 41.0132C54.1691 41.4066 54.5776 41.9816 55.0012 42.3901C55.4401 42.7987 56.0454 43.2072 57.3164 43.6612L57.3164 46.9448C57.3164 50.2434 57.3164 50.2434 56.575 51L33.4084 51L33.4084 49.4868C33.4084 48.1704 33.3632 47.9283 33.1058 47.6711C32.9395 47.5046 32.6671 47.3684 32.5006 47.3684C32.3341 47.3684 32.0618 47.5046 31.8954 47.6711C31.6381 47.9283 31.5928 48.1704 31.5928 51L21.7572 51L21.0006 50.2434L21.0006 43.6612L21.7875 43.3737C22.2716 43.2072 22.877 42.7987 23.3158 42.3901C23.7394 41.9816 24.1479 41.4066 24.2993 41.0132C24.4354 40.6349 24.5565 39.9539 24.5565 39.5C24.5565 39.0461 24.4354 38.3651 24.2993 37.9868C24.1479 37.5934 23.7394 37.0184 23.3158 36.6099C22.877 36.2013 22.2716 35.7928 21.0006 35.3388L21.0006 32.0402L21.0006 32.0363ZM38.1185 33.9467C38.3153 33.7651 38.6785 33.5079 38.9357 33.3868C39.1929 33.2506 39.6923 33.1447 40.0706 33.1447C40.4489 33.1447 41.0238 33.2809 41.3567 33.4322C41.6897 33.5684 42.1436 33.9164 42.3706 34.1736C42.6127 34.446 42.8547 34.9151 42.9456 35.2328C43.0212 35.5355 43.0969 35.9592 43.0969 36.171C43.0969 36.3829 42.9153 36.9125 42.6884 37.3664C42.3857 37.9414 42.083 38.2894 41.6594 38.5316C41.3265 38.7131 40.812 38.925 40.5245 38.9704C40.2219 39.0309 39.7377 39.0006 39.3896 38.8947C39.0568 38.7888 38.5574 38.5316 38.2699 38.3046C37.9824 38.0927 37.6193 37.6388 37.4679 37.3059C37.3167 36.973 37.1956 36.4283 37.1956 36.0954C37.1956 35.7625 37.3318 35.2177 37.483 34.8848C37.6344 34.5519 37.9219 34.1282 38.1185 33.9467ZM43.1876 39.1973C45.064 36.4131 46.7437 33.9769 46.9252 33.7953C47.0917 33.5986 47.3792 33.4473 47.5455 33.4473C47.7272 33.4473 47.9844 33.5684 48.1357 33.7197C48.287 33.8559 48.4081 34.1434 48.3929 34.3552C48.3929 34.5974 47.1975 36.5039 45.1245 39.5756C43.3239 42.2388 41.6897 44.6447 41.4929 44.9171C41.2509 45.2399 41.0037 45.4013 40.7515 45.4013C40.5397 45.4013 40.2371 45.2651 40.0706 45.0986C39.9041 44.9322 39.7679 44.675 39.7679 44.5388C39.7679 44.3875 41.2963 41.9816 43.1876 39.1973ZM31.8239 34.1736C31.5818 34.4158 31.5515 34.6881 31.5667 36.1105C31.5818 37.0184 31.6573 37.8355 31.7179 37.9263C31.7784 38.0171 31.9904 38.1835 32.2021 38.2743C32.5199 38.4407 32.641 38.4257 32.9587 38.1684C33.3219 37.8961 33.337 37.7901 33.3824 36.2316C33.3976 34.9605 33.3673 34.5065 33.1857 34.2493C33.0344 34.0223 32.8074 33.9013 32.5199 33.9013C32.293 33.9013 31.9752 34.0223 31.8239 34.1736ZM46.3502 40.6197C46.6074 40.4381 47.0463 40.2112 47.3337 40.1204C47.6212 40.0447 48.1206 39.9993 48.4232 40.0296C48.741 40.075 49.2705 40.2414 49.6035 40.4079C49.9364 40.5743 50.3298 40.8921 50.4811 41.1342C50.6476 41.3611 50.8442 41.7849 50.9502 42.0723C51.041 42.3599 51.1166 42.8138 51.1166 43.0559C51.1166 43.3131 50.9805 43.7822 50.8291 44.1151C50.6779 44.448 50.3903 44.8717 50.1936 45.0533C49.9968 45.2349 49.5732 45.4921 49.2554 45.6132C48.9528 45.7493 48.4232 45.8552 48.0903 45.8552C47.7574 45.8552 47.2278 45.7191 46.91 45.5677C46.6074 45.4164 46.1989 45.1138 46.0173 44.9171C45.8357 44.7355 45.5785 44.3118 45.4574 44.0092C45.3212 43.6914 45.2153 43.1769 45.2153 42.8743C45.2153 42.5566 45.3666 41.9967 45.5634 41.6335C45.7449 41.2552 46.0929 40.8013 46.3502 40.6197ZM32.1265 40.7559C31.9601 40.8467 31.7784 40.998 31.7179 41.0888C31.6573 41.1644 31.5969 41.9967 31.5969 42.9046C31.5818 44.3118 31.6272 44.6144 31.8541 44.8263C32.0054 44.9776 32.3081 45.0986 32.535 45.0986C32.8074 45.0986 33.0344 44.9776 33.1857 44.7657C33.3522 44.5085 33.4127 43.9941 33.4127 42.7986C33.4127 41.1947 33.4127 41.1644 32.989 40.8618C32.762 40.6802 32.5502 40.5592 32.5048 40.5592C32.4594 40.5592 32.293 40.65 32.1265 40.7559Z" clip-rule="evenodd" fill="#FB48FF" fill-opacity="1.000000" fill-rule="evenodd" mask="url(#mask_1_248)"/>
	<path id="Subtract" d="" fill="#000000" fill-opacity="0.000000" fill-rule="nonzero"/>
	<path id="Vector" d="M38.97 35.98C38.96 35.8 39.11 35.5 39.3 35.3C39.5 35.11 39.85 34.96 40.09 34.96C40.35 34.96 40.66 35.11 40.89 35.33C41.1 35.55 41.27 35.82 41.27 35.94C41.27 36.06 41.18 36.33 41.09 36.54C40.98 36.76 40.73 37 40.51 37.09C40.26 37.2 40 37.2 39.73 37.07C39.48 37 39.24 36.79 39.15 36.62C39.06 36.45 38.99 36.17 38.97 35.98ZM47.2 42.35C47.31 42.19 47.52 41.99 47.7 41.92C47.87 41.84 48.17 41.81 48.38 41.86C48.59 41.9 48.88 42.08 49.03 42.26C49.18 42.45 49.3 42.75 49.29 42.93C49.29 43.13 49.12 43.44 48.91 43.66C48.68 43.9 48.38 44.03 48.08 44.03C47.76 44.03 47.53 43.91 47.32 43.63C47.14 43.38 47 43.08 47.02 42.95C47.02 42.79 47.1 42.54 47.2 42.35Z" fill="#FB48FF" fill-opacity="1.000000" fill-rule="evenodd"/>
	<path id="Vector" d="M38.97 35.98C38.99 36.17 39.06 36.45 39.15 36.62C39.24 36.79 39.48 37 39.73 37.07C40 37.2 40.26 37.2 40.51 37.09C40.73 37 40.98 36.76 41.09 36.54C41.18 36.33 41.27 36.06 41.27 35.94C41.27 35.82 41.1 35.55 40.89 35.33C40.66 35.11 40.35 34.96 40.09 34.96C39.85 34.96 39.5 35.11 39.3 35.3C39.11 35.5 38.96 35.8 38.97 35.98ZM47.2 42.35C47.1 42.54 47.02 42.79 47.02 42.95C47 43.08 47.14 43.38 47.32 43.63C47.53 43.91 47.76 44.03 48.08 44.03C48.38 44.03 48.68 43.9 48.91 43.66C49.12 43.44 49.29 43.13 49.29 42.93C49.3 42.75 49.18 42.45 49.03 42.26C48.88 42.08 48.59 41.9 48.38 41.86C48.17 41.81 47.87 41.84 47.7 41.92C47.52 41.99 47.31 42.19 47.2 42.35Z" stroke="#000000" stroke-opacity="0" stroke-width="0.151316"/>
</svg>
