<svg width="65.092041" height="65.084106" viewBox="0 0 65.092 65.0841" fill="none" xmlns="http://www.w3.org/2000/svg" xmlns:xlink="http://www.w3.org/1999/xlink">
	<desc>
			Created with Pixso.
	</desc>
	<defs>
		<filter id="filter_1_330_dd" x="0.000000" y="0.000000" width="65.092041" height="65.084106" filterUnits="userSpaceOnUse" color-interpolation-filters="sRGB">
			<feFlood flood-opacity="0" result="BackgroundImageFix"/>
			<feBlend mode="normal" in="SourceGraphic" in2="BackgroundImageFix" result="shape"/>
			<feGaussianBlur stdDeviation="7.29953" result="effect_layerBlur_1"/>
		</filter>
	</defs>
	<path id="Vector" d="M32.45 21.89C33.15 21.89 33.96 21.94 34.4 22.01C34.82 22.08 35.52 22.27 35.96 22.43C36.39 22.58 37.06 22.85 37.42 23.04C37.78 23.23 38.39 23.59 38.75 23.85C39.12 24.1 39.72 24.61 40.08 24.98C40.46 25.35 40.97 25.96 41.23 26.32C41.48 26.69 41.85 27.29 42.04 27.65C42.21 28.02 42.48 28.62 42.6 28.98C42.74 29.35 42.92 30.04 43.01 30.51C43.14 31.1 43.19 31.74 43.19 32.51C43.19 33.14 43.15 33.88 43.1 34.17C43.06 34.47 42.91 35.07 42.79 35.51C42.66 35.94 42.39 36.67 42.18 37.1C41.97 37.54 41.59 38.22 41.33 38.61C41.06 39 40.5 39.66 40.08 40.08C39.67 40.49 39.01 41.05 38.62 41.32C38.23 41.58 37.55 41.97 37.11 42.17C36.68 42.38 35.95 42.65 35.51 42.78C35.08 42.91 34.48 43.05 34.18 43.09C33.89 43.15 33.15 43.18 32.54 43.18C31.93 43.18 31.09 43.13 30.68 43.06C30.26 42.99 29.57 42.8 29.13 42.64C28.68 42.49 28.02 42.21 27.66 42.03C27.3 41.84 26.71 41.49 26.37 41.26C26.04 41.01 25.5 40.58 25.19 40.29C24.87 40 24.37 39.43 24.05 39.01C23.74 38.59 23.31 37.92 23.1 37.5C22.89 37.08 22.59 36.38 22.43 35.95C22.28 35.51 22.09 34.81 22.02 34.4C21.95 33.98 21.89 33.15 21.89 32.53C21.89 31.92 21.95 31.09 22.03 30.67C22.1 30.25 22.27 29.58 22.41 29.16C22.55 28.74 22.85 28.05 23.07 27.61C23.3 27.17 23.56 26.73 23.8 26.44L24.89 26.9L24.5 27.52C24.29 27.86 23.98 28.46 23.81 28.85C23.65 29.24 23.42 29.92 23.3 30.36C23.13 31.04 23.09 31.37 23.09 32.58C23.09 33.78 23.13 34.12 23.3 34.8C23.42 35.23 23.66 35.93 23.84 36.35C24.01 36.77 24.39 37.44 24.66 37.86C24.94 38.27 25.48 38.92 25.86 39.3C26.24 39.68 26.77 40.15 27.04 40.33C27.31 40.52 27.85 40.84 28.24 41.03C28.63 41.23 29.25 41.49 29.61 41.61C29.98 41.73 30.54 41.89 30.86 41.95C31.17 42.01 31.95 42.05 32.59 42.05C33.34 42.05 33.99 42 34.45 41.89C34.84 41.81 35.5 41.62 35.91 41.47C36.33 41.32 37 40.99 37.42 40.73C38.09 40.33 38.18 40.24 38.18 40.02C38.18 39.83 38.13 39.76 37.98 39.74C37.86 39.72 37.62 39.82 37.4 39.97C37.19 40.11 36.81 40.33 36.55 40.47C36.3 40.59 36.07 40.69 36.05 40.67C36.03 40.66 35.49 39.29 34.85 37.64C34.21 35.98 33.69 34.58 33.69 34.53C33.69 34.48 33.85 34.29 34.36 33.76L37.4 35.12C39.07 35.87 40.45 36.52 40.44 36.57C40.44 36.62 40.24 36.96 40 37.32C39.77 37.69 39.37 38.22 39.12 38.5C38.87 38.78 38.66 39.06 38.66 39.12C38.66 39.18 38.71 39.29 38.77 39.35C38.83 39.41 38.96 39.45 39.04 39.45C39.12 39.45 39.45 39.14 39.77 38.76C40.08 38.39 40.49 37.82 40.69 37.5C40.87 37.18 41.13 36.69 41.25 36.39C41.39 36.1 41.6 35.5 41.72 35.06C41.91 34.44 41.97 34 42.01 33.07C42.04 32.29 42.03 31.61 41.95 31.16C41.89 30.77 41.74 30.13 41.62 29.74C41.49 29.35 41.24 28.71 41.04 28.32C40.85 27.93 40.51 27.35 40.28 27.03C40.06 26.71 39.58 26.16 39.22 25.81C38.87 25.46 38.23 24.94 37.79 24.65C37.37 24.37 36.7 24.01 36.31 23.85C35.92 23.69 35.24 23.46 34.8 23.35C34.37 23.23 33.62 23.12 33.16 23.08C32.65 23.04 32.01 23.06 31.52 23.12C31.09 23.18 30.42 23.31 30.06 23.4C29.69 23.5 29.13 23.7 28.81 23.83C28.5 23.96 27.97 24.25 27.04 24.81L26.87 24.43C26.78 24.23 26.68 23.97 26.65 23.86C26.61 23.7 26.65 23.62 26.84 23.49C26.98 23.4 27.4 23.17 27.79 22.98C28.18 22.78 28.82 22.52 29.21 22.39C29.6 22.27 30.15 22.13 30.41 22.07C30.68 22.02 30.98 21.96 31.08 21.94C31.17 21.92 31.8 21.9 32.45 21.89ZM25.66 23.42C25.71 23.44 26.05 24.16 26.39 25.02C26.75 25.89 27.02 26.65 27 26.72C26.97 26.79 26.86 26.85 26.75 26.85C26.64 26.85 25.91 26.6 25.13 26.28C24.35 25.96 23.68 25.67 23.64 25.63C23.6 25.59 23.59 25.47 23.61 25.35C23.63 25.22 23.91 24.85 24.22 24.51C24.53 24.17 24.95 23.78 25.18 23.64C25.39 23.51 25.61 23.4 25.66 23.42ZM32.81 23.78C33.81 23.81 34.26 23.86 34.87 24.02C35.28 24.14 35.67 24.28 35.73 24.33C35.8 24.39 35.44 25.28 33.14 30.45L32.1 30.45L31.86 29.83C31.73 29.49 31.41 28.65 31.15 27.96C30.88 27.28 30.61 26.66 30.54 26.59C30.44 26.49 30.38 26.48 30.25 26.55C30.17 26.61 30.08 26.7 30.07 26.77C30.06 26.85 30.37 27.76 30.76 28.81C31.16 29.85 31.47 30.71 31.45 30.71C31.44 30.71 31.27 30.87 30.72 31.39L27.71 30.04C26.05 29.3 24.68 28.68 24.66 28.66C24.65 28.65 24.75 28.43 24.88 28.18C25.03 27.93 25.23 27.6 25.58 27.2L26.06 27.39C26.41 27.53 26.65 27.56 26.88 27.53C27.1 27.49 27.3 27.39 27.44 27.21C27.59 27.03 27.66 26.84 27.66 26.61C27.66 26.43 27.57 26.1 27.3 25.48L27.52 25.3C27.64 25.2 28.03 24.97 28.39 24.78C28.74 24.59 29.06 24.48 29.1 24.51C29.13 24.56 29.26 24.85 29.37 25.17C29.57 25.69 29.6 25.75 29.84 25.75C30.03 25.75 30.11 25.7 30.13 25.57C30.15 25.47 30.06 25.12 29.7 24.19L29.99 24.1C30.15 24.05 30.56 23.95 30.9 23.88C31.33 23.79 31.91 23.77 32.81 23.78ZM36.46 24.65L36.74 24.79C36.9 24.87 37.31 25.13 37.68 25.38C38.04 25.63 38.64 26.15 39.01 26.55C39.38 26.94 39.9 27.63 40.15 28.06C40.41 28.5 40.62 28.92 40.62 29.01C40.62 29.09 40.56 29.18 40.5 29.2C40.45 29.21 39.05 29.74 34.45 31.49L34.11 31.14C33.93 30.95 33.78 30.77 33.78 30.71C33.78 30.66 34.39 29.28 35.12 27.64L36.46 24.65ZM24.51 29.37C24.61 29.4 25.99 30 30.46 32L30.41 33.02L27.37 34.19C25.7 34.84 24.29 35.37 24.23 35.37C24.17 35.37 24.06 35.13 23.98 34.8C23.91 34.48 23.81 33.86 23.76 33.4C23.69 32.83 23.69 32.32 23.76 31.73C23.81 31.27 23.9 30.73 23.94 30.54C24 30.34 24.1 29.99 24.18 29.76C24.3 29.39 24.35 29.33 24.51 29.37ZM40.86 29.79C40.93 29.78 41.01 29.93 41.06 30.12C41.1 30.3 41.18 30.63 41.24 30.85C41.28 31.07 41.35 31.65 41.39 32.13C41.41 32.67 41.4 33.29 41.33 33.69C41.28 34.05 41.15 34.67 41.04 35.05C40.93 35.44 40.8 35.77 40.75 35.79C40.7 35.82 39.33 35.23 34.71 33.18L34.66 32.13L37.71 30.96C39.38 30.31 40.8 29.79 40.86 29.79ZM32.63 31.13C32.98 31.16 33.22 31.23 33.43 31.38C33.6 31.5 33.8 31.76 33.89 31.96C33.98 32.15 34.05 32.44 34.05 32.58C34.05 32.73 33.98 33 33.89 33.2C33.8 33.39 33.6 33.65 33.43 33.78C33.23 33.92 32.96 34.01 32.67 34.03C32.38 34.06 32.14 34.02 31.95 33.92C31.79 33.84 31.56 33.67 31.44 33.54C31.32 33.4 31.18 33.13 31.13 32.93C31.07 32.7 31.07 32.46 31.14 32.22C31.18 32.03 31.29 31.79 31.38 31.68C31.46 31.58 31.66 31.41 31.83 31.3C32.08 31.15 32.25 31.11 32.63 31.13ZM30.63 33.7C30.69 33.7 30.87 33.87 31.37 34.44L30.27 36.88C29.68 38.22 29.05 39.6 28.64 40.52L28.22 40.29C27.99 40.15 27.5 39.83 27.14 39.55C26.78 39.28 26.29 38.83 26.04 38.57C25.8 38.3 25.41 37.8 25.19 37.46C24.96 37.12 24.7 36.67 24.6 36.46C24.5 36.25 24.45 36.06 24.47 36.05C24.49 36.03 25.87 35.49 27.53 34.85C29.19 34.22 30.59 33.7 30.63 33.7ZM31.97 34.7L33.03 34.73L34.21 37.82C34.86 39.53 35.35 40.94 35.33 40.96C35.3 40.99 35.01 41.08 34.69 41.17C34.33 41.26 33.64 41.35 32.94 41.38C32.09 41.41 31.59 41.39 31.03 41.29C30.62 41.21 30.07 41.07 29.79 40.97C29.48 40.86 29.31 40.76 29.33 40.69C29.35 40.62 29.8 39.57 30.35 38.34C30.89 37.13 31.48 35.81 31.65 35.41L31.97 34.7Z" fill="#F7F7F7" fill-opacity="1.000000" fill-rule="evenodd"/>
	<path id="Vector" d="M32.45 21.89C33.15 21.89 33.96 21.94 34.4 22.01C34.82 22.08 35.52 22.27 35.96 22.43C36.39 22.58 37.06 22.85 37.42 23.04C37.78 23.23 38.39 23.59 38.75 23.85C39.12 24.1 39.72 24.61 40.08 24.98C40.46 25.35 40.97 25.96 41.23 26.32C41.48 26.69 41.85 27.29 42.04 27.65C42.21 28.02 42.48 28.62 42.6 28.98C42.74 29.35 42.92 30.04 43.01 30.51C43.14 31.1 43.19 31.74 43.19 32.51C43.19 33.14 43.15 33.88 43.1 34.17C43.06 34.47 42.91 35.07 42.79 35.51C42.66 35.94 42.39 36.67 42.18 37.1C41.97 37.54 41.59 38.22 41.33 38.61C41.06 39 40.5 39.66 40.08 40.08C39.67 40.49 39.01 41.05 38.62 41.32C38.23 41.58 37.55 41.97 37.11 42.17C36.68 42.38 35.95 42.65 35.51 42.78C35.08 42.91 34.48 43.05 34.18 43.09C33.89 43.15 33.15 43.18 32.54 43.18C31.93 43.18 31.09 43.13 30.68 43.06C30.26 42.99 29.57 42.8 29.13 42.64C28.68 42.49 28.02 42.21 27.66 42.03C27.3 41.84 26.71 41.49 26.37 41.26C26.04 41.01 25.5 40.58 25.19 40.29C24.87 40 24.37 39.43 24.05 39.01C23.74 38.59 23.31 37.92 23.1 37.5C22.89 37.08 22.59 36.38 22.43 35.95C22.28 35.51 22.09 34.81 22.02 34.4C21.95 33.98 21.89 33.15 21.89 32.53C21.89 31.92 21.95 31.09 22.03 30.67C22.1 30.25 22.27 29.58 22.41 29.16C22.55 28.74 22.85 28.05 23.07 27.61C23.3 27.17 23.56 26.73 23.8 26.44L24.89 26.9L24.5 27.52C24.29 27.86 23.98 28.46 23.81 28.85C23.65 29.24 23.42 29.92 23.3 30.36C23.13 31.04 23.09 31.37 23.09 32.58C23.09 33.78 23.13 34.12 23.3 34.8C23.42 35.23 23.66 35.93 23.84 36.35C24.01 36.77 24.39 37.44 24.66 37.86C24.94 38.27 25.48 38.92 25.86 39.3C26.24 39.68 26.77 40.15 27.04 40.33C27.31 40.52 27.85 40.84 28.24 41.03C28.63 41.23 29.25 41.49 29.61 41.61C29.98 41.73 30.54 41.89 30.86 41.95C31.17 42.01 31.95 42.05 32.59 42.05C33.34 42.05 33.99 42 34.45 41.89C34.84 41.81 35.5 41.62 35.91 41.47C36.33 41.32 37 40.99 37.42 40.73C38.09 40.33 38.18 40.24 38.18 40.02C38.18 39.83 38.13 39.76 37.98 39.74C37.86 39.72 37.62 39.82 37.4 39.97C37.19 40.11 36.81 40.33 36.55 40.47C36.3 40.59 36.07 40.69 36.05 40.67C36.03 40.66 35.49 39.29 34.85 37.64C34.21 35.98 33.69 34.58 33.69 34.53C33.69 34.48 33.85 34.29 34.36 33.76L37.4 35.12C39.07 35.87 40.45 36.52 40.44 36.57C40.44 36.62 40.24 36.96 40 37.32C39.77 37.69 39.37 38.22 39.12 38.5C38.87 38.78 38.66 39.06 38.66 39.12C38.66 39.18 38.71 39.29 38.77 39.35C38.83 39.41 38.96 39.45 39.04 39.45C39.12 39.45 39.45 39.14 39.77 38.76C40.08 38.39 40.49 37.82 40.69 37.5C40.87 37.18 41.13 36.69 41.25 36.39C41.39 36.1 41.6 35.5 41.72 35.06C41.91 34.44 41.97 34 42.01 33.07C42.04 32.29 42.03 31.61 41.95 31.16C41.89 30.77 41.74 30.13 41.62 29.74C41.49 29.35 41.24 28.71 41.04 28.32C40.85 27.93 40.51 27.35 40.28 27.03C40.06 26.71 39.58 26.16 39.22 25.81C38.87 25.46 38.23 24.94 37.79 24.65C37.37 24.37 36.7 24.01 36.31 23.85C35.92 23.69 35.24 23.46 34.8 23.35C34.37 23.23 33.62 23.12 33.16 23.08C32.65 23.04 32.01 23.06 31.52 23.12C31.09 23.18 30.42 23.31 30.06 23.4C29.69 23.5 29.13 23.7 28.81 23.83C28.5 23.96 27.97 24.25 27.04 24.81L26.87 24.43C26.78 24.23 26.68 23.97 26.65 23.86C26.61 23.7 26.65 23.62 26.84 23.49C26.98 23.4 27.4 23.17 27.79 22.98C28.18 22.78 28.82 22.52 29.21 22.39C29.6 22.27 30.15 22.13 30.41 22.07C30.68 22.02 30.98 21.96 31.08 21.94C31.17 21.92 31.8 21.9 32.45 21.89ZM25.66 23.42C25.71 23.44 26.05 24.16 26.39 25.02C26.75 25.89 27.02 26.65 27 26.72C26.97 26.79 26.86 26.85 26.75 26.85C26.64 26.85 25.91 26.6 25.13 26.28C24.35 25.96 23.68 25.67 23.64 25.63C23.6 25.59 23.59 25.47 23.61 25.35C23.63 25.22 23.91 24.85 24.22 24.51C24.53 24.17 24.95 23.78 25.18 23.64C25.39 23.51 25.61 23.4 25.66 23.42ZM32.81 23.78C33.81 23.81 34.26 23.86 34.87 24.02C35.28 24.14 35.67 24.28 35.73 24.33C35.8 24.39 35.44 25.28 33.14 30.45L32.1 30.45L31.86 29.83C31.73 29.49 31.41 28.65 31.15 27.96C30.88 27.28 30.61 26.66 30.54 26.59C30.44 26.49 30.38 26.48 30.25 26.55C30.17 26.61 30.08 26.7 30.07 26.77C30.06 26.85 30.37 27.76 30.76 28.81C31.16 29.85 31.47 30.71 31.45 30.71C31.44 30.71 31.27 30.87 30.72 31.39L27.71 30.04C26.05 29.3 24.68 28.68 24.66 28.66C24.65 28.65 24.75 28.43 24.88 28.18C25.03 27.93 25.23 27.6 25.58 27.2L26.06 27.39C26.41 27.53 26.65 27.56 26.88 27.53C27.1 27.49 27.3 27.39 27.44 27.21C27.59 27.03 27.66 26.84 27.66 26.61C27.66 26.43 27.57 26.1 27.3 25.48L27.52 25.3C27.64 25.2 28.03 24.97 28.39 24.78C28.74 24.59 29.06 24.48 29.1 24.51C29.13 24.56 29.26 24.85 29.37 25.17C29.57 25.69 29.6 25.75 29.84 25.75C30.03 25.75 30.11 25.7 30.13 25.57C30.15 25.47 30.06 25.12 29.7 24.19L29.99 24.1C30.15 24.05 30.56 23.95 30.9 23.88C31.33 23.79 31.91 23.77 32.81 23.78ZM36.46 24.65L36.74 24.79C36.9 24.87 37.31 25.13 37.68 25.38C38.04 25.63 38.64 26.15 39.01 26.55C39.38 26.94 39.9 27.63 40.15 28.06C40.41 28.5 40.62 28.92 40.62 29.01C40.62 29.09 40.56 29.18 40.5 29.2C40.45 29.21 39.05 29.74 34.45 31.49L34.11 31.14C33.93 30.95 33.78 30.77 33.78 30.71C33.78 30.66 34.39 29.28 35.12 27.64L36.46 24.65ZM24.51 29.37C24.61 29.4 25.99 30 30.46 32L30.41 33.02L27.37 34.19C25.7 34.84 24.29 35.37 24.23 35.37C24.17 35.37 24.06 35.13 23.98 34.8C23.91 34.48 23.81 33.86 23.76 33.4C23.69 32.83 23.69 32.32 23.76 31.73C23.81 31.27 23.9 30.73 23.94 30.54C24 30.34 24.1 29.99 24.18 29.76C24.3 29.39 24.35 29.33 24.51 29.37ZM40.86 29.79C40.93 29.78 41.01 29.93 41.06 30.12C41.1 30.3 41.18 30.63 41.24 30.85C41.28 31.07 41.35 31.65 41.39 32.13C41.41 32.67 41.4 33.29 41.33 33.69C41.28 34.05 41.15 34.67 41.04 35.05C40.93 35.44 40.8 35.77 40.75 35.79C40.7 35.82 39.33 35.23 34.71 33.18L34.66 32.13L37.71 30.96C39.38 30.31 40.8 29.79 40.86 29.79ZM32.63 31.13C32.98 31.16 33.22 31.23 33.43 31.38C33.6 31.5 33.8 31.76 33.89 31.96C33.98 32.15 34.05 32.44 34.05 32.58C34.05 32.73 33.98 33 33.89 33.2C33.8 33.39 33.6 33.65 33.43 33.78C33.23 33.92 32.96 34.01 32.67 34.03C32.38 34.06 32.14 34.02 31.95 33.92C31.79 33.84 31.56 33.67 31.44 33.54C31.32 33.4 31.18 33.13 31.13 32.93C31.07 32.7 31.07 32.46 31.14 32.22C31.18 32.03 31.29 31.79 31.38 31.68C31.46 31.58 31.66 31.41 31.83 31.3C32.08 31.15 32.25 31.11 32.63 31.13ZM30.63 33.7C30.69 33.7 30.87 33.87 31.37 34.44L30.27 36.88C29.68 38.22 29.05 39.6 28.64 40.52L28.22 40.29C27.99 40.15 27.5 39.83 27.14 39.55C26.78 39.28 26.29 38.83 26.04 38.57C25.8 38.3 25.41 37.8 25.19 37.46C24.96 37.12 24.7 36.67 24.6 36.46C24.5 36.25 24.45 36.06 24.47 36.05C24.49 36.03 25.87 35.49 27.53 34.85C29.19 34.22 30.59 33.7 30.63 33.7ZM31.97 34.7L33.03 34.73L34.21 37.82C34.86 39.53 35.35 40.94 35.33 40.96C35.3 40.99 35.01 41.08 34.69 41.17C34.33 41.26 33.64 41.35 32.94 41.38C32.09 41.41 31.59 41.39 31.03 41.29C30.62 41.21 30.07 41.07 29.79 40.97C29.48 40.86 29.31 40.76 29.33 40.69C29.35 40.62 29.8 39.57 30.35 38.34C30.89 37.13 31.48 35.81 31.65 35.41L31.97 34.7Z" fill="#FF23C8" fill-opacity="1.000000" fill-rule="evenodd"/>
	<g opacity="0.360000" filter="url(#filter_1_330_dd)" style="mix-blend-mode:screen">
		<path id="Vector" d="M32.45 21.89C33.15 21.89 33.96 21.94 34.4 22.01C34.82 22.08 35.52 22.27 35.96 22.43C36.39 22.58 37.06 22.85 37.42 23.04C37.78 23.23 38.39 23.59 38.75 23.85C39.12 24.1 39.72 24.61 40.08 24.98C40.46 25.35 40.97 25.96 41.23 26.32C41.48 26.69 41.85 27.29 42.04 27.65C42.21 28.02 42.48 28.62 42.6 28.98C42.74 29.35 42.92 30.04 43.01 30.51C43.14 31.1 43.19 31.74 43.19 32.51C43.19 33.14 43.15 33.88 43.1 34.17C43.06 34.47 42.91 35.07 42.79 35.51C42.66 35.94 42.39 36.67 42.18 37.1C41.97 37.54 41.59 38.22 41.33 38.61C41.06 39 40.5 39.66 40.08 40.08C39.67 40.49 39.01 41.05 38.62 41.32C38.23 41.58 37.55 41.97 37.11 42.17C36.68 42.38 35.95 42.65 35.51 42.78C35.08 42.91 34.48 43.05 34.18 43.09C33.89 43.15 33.15 43.18 32.54 43.18C31.93 43.18 31.09 43.13 30.68 43.06C30.26 42.99 29.57 42.8 29.13 42.64C28.68 42.49 28.02 42.21 27.66 42.03C27.3 41.84 26.71 41.49 26.37 41.26C26.04 41.01 25.5 40.58 25.19 40.29C24.87 40 24.37 39.43 24.05 39.01C23.74 38.59 23.31 37.92 23.1 37.5C22.89 37.08 22.59 36.38 22.43 35.95C22.28 35.51 22.09 34.81 22.02 34.4C21.95 33.98 21.89 33.15 21.89 32.53C21.89 31.92 21.95 31.09 22.03 30.67C22.1 30.25 22.27 29.58 22.41 29.16C22.55 28.74 22.85 28.05 23.07 27.61C23.3 27.17 23.56 26.73 23.8 26.44L24.89 26.9L24.5 27.52C24.29 27.86 23.98 28.46 23.81 28.85C23.65 29.24 23.42 29.92 23.3 30.36C23.13 31.04 23.09 31.37 23.09 32.58C23.09 33.78 23.13 34.12 23.3 34.8C23.42 35.23 23.66 35.93 23.84 36.35C24.01 36.77 24.39 37.44 24.66 37.86C24.94 38.27 25.48 38.92 25.86 39.3C26.24 39.68 26.77 40.15 27.04 40.33C27.31 40.52 27.85 40.84 28.24 41.03C28.63 41.23 29.25 41.49 29.61 41.61C29.98 41.73 30.54 41.89 30.86 41.95C31.17 42.01 31.95 42.05 32.59 42.05C33.34 42.05 33.99 42 34.45 41.89C34.84 41.81 35.5 41.62 35.91 41.47C36.33 41.32 37 40.99 37.42 40.73C38.09 40.33 38.18 40.24 38.18 40.02C38.18 39.83 38.13 39.76 37.98 39.74C37.86 39.72 37.62 39.82 37.4 39.97C37.19 40.11 36.81 40.33 36.55 40.47C36.3 40.59 36.07 40.69 36.05 40.67C36.03 40.66 35.49 39.29 34.85 37.64C34.21 35.98 33.69 34.58 33.69 34.53C33.69 34.48 33.85 34.29 34.36 33.76L37.4 35.12C39.07 35.87 40.45 36.52 40.44 36.57C40.44 36.62 40.24 36.96 40 37.32C39.77 37.69 39.37 38.22 39.12 38.5C38.87 38.78 38.66 39.06 38.66 39.12C38.66 39.18 38.71 39.29 38.77 39.35C38.83 39.41 38.96 39.45 39.04 39.45C39.12 39.45 39.45 39.14 39.77 38.76C40.08 38.39 40.49 37.82 40.69 37.5C40.87 37.18 41.13 36.69 41.25 36.39C41.39 36.1 41.6 35.5 41.72 35.06C41.91 34.44 41.97 34 42.01 33.07C42.04 32.29 42.03 31.61 41.95 31.16C41.89 30.77 41.74 30.13 41.62 29.74C41.49 29.35 41.24 28.71 41.04 28.32C40.85 27.93 40.51 27.35 40.28 27.03C40.06 26.71 39.58 26.16 39.22 25.81C38.87 25.46 38.23 24.94 37.79 24.65C37.37 24.37 36.7 24.01 36.31 23.85C35.92 23.69 35.24 23.46 34.8 23.35C34.37 23.23 33.62 23.12 33.16 23.08C32.65 23.04 32.01 23.06 31.52 23.12C31.09 23.18 30.42 23.31 30.06 23.4C29.69 23.5 29.13 23.7 28.81 23.83C28.5 23.96 27.97 24.25 27.04 24.81L26.87 24.43C26.78 24.23 26.68 23.97 26.65 23.86C26.61 23.7 26.65 23.62 26.84 23.49C26.98 23.4 27.4 23.17 27.79 22.98C28.18 22.78 28.82 22.52 29.21 22.39C29.6 22.27 30.15 22.13 30.41 22.07C30.68 22.02 30.98 21.96 31.08 21.94C31.17 21.92 31.8 21.9 32.45 21.89ZM25.66 23.42C25.71 23.44 26.05 24.16 26.39 25.02C26.75 25.89 27.02 26.65 27 26.72C26.97 26.79 26.86 26.85 26.75 26.85C26.64 26.85 25.91 26.6 25.13 26.28C24.35 25.96 23.68 25.67 23.64 25.63C23.6 25.59 23.59 25.47 23.61 25.35C23.63 25.22 23.91 24.85 24.22 24.51C24.53 24.17 24.95 23.78 25.18 23.64C25.39 23.51 25.61 23.4 25.66 23.42ZM32.81 23.78C33.81 23.81 34.26 23.86 34.87 24.02C35.28 24.14 35.67 24.28 35.73 24.33C35.8 24.39 35.44 25.28 33.14 30.45L32.1 30.45L31.86 29.83C31.73 29.49 31.41 28.65 31.15 27.96C30.88 27.28 30.61 26.66 30.54 26.59C30.44 26.49 30.38 26.48 30.25 26.55C30.17 26.61 30.08 26.7 30.07 26.77C30.06 26.85 30.37 27.76 30.76 28.81C31.16 29.85 31.47 30.71 31.45 30.71C31.44 30.71 31.27 30.87 30.72 31.39L27.71 30.04C26.05 29.3 24.68 28.68 24.66 28.66C24.65 28.65 24.75 28.43 24.88 28.18C25.03 27.93 25.23 27.6 25.58 27.2L26.06 27.39C26.41 27.53 26.65 27.56 26.88 27.53C27.1 27.49 27.3 27.39 27.44 27.21C27.59 27.03 27.66 26.84 27.66 26.61C27.66 26.43 27.57 26.1 27.3 25.48L27.52 25.3C27.64 25.2 28.03 24.97 28.39 24.78C28.74 24.59 29.06 24.48 29.1 24.51C29.13 24.56 29.26 24.85 29.37 25.17C29.57 25.69 29.6 25.75 29.84 25.75C30.03 25.75 30.11 25.7 30.13 25.57C30.15 25.47 30.06 25.12 29.7 24.19L29.99 24.1C30.15 24.05 30.56 23.95 30.9 23.88C31.33 23.79 31.91 23.77 32.81 23.78ZM36.46 24.65L36.74 24.79C36.9 24.87 37.31 25.13 37.68 25.38C38.04 25.63 38.64 26.15 39.01 26.55C39.38 26.94 39.9 27.63 40.15 28.06C40.41 28.5 40.62 28.92 40.62 29.01C40.62 29.09 40.56 29.18 40.5 29.2C40.45 29.21 39.05 29.74 34.45 31.49L34.11 31.14C33.93 30.95 33.78 30.77 33.78 30.71C33.78 30.66 34.39 29.28 35.12 27.64L36.46 24.65ZM24.51 29.37C24.61 29.4 25.99 30 30.46 32L30.41 33.02L27.37 34.19C25.7 34.84 24.29 35.37 24.23 35.37C24.17 35.37 24.06 35.13 23.98 34.8C23.91 34.48 23.81 33.86 23.76 33.4C23.69 32.83 23.69 32.32 23.76 31.73C23.81 31.27 23.9 30.73 23.94 30.54C24 30.34 24.1 29.99 24.18 29.76C24.3 29.39 24.35 29.33 24.51 29.37ZM40.86 29.79C40.93 29.78 41.01 29.93 41.06 30.12C41.1 30.3 41.18 30.63 41.24 30.85C41.28 31.07 41.35 31.65 41.39 32.13C41.41 32.67 41.4 33.29 41.33 33.69C41.28 34.05 41.15 34.67 41.04 35.05C40.93 35.44 40.8 35.77 40.75 35.79C40.7 35.82 39.33 35.23 34.71 33.18L34.66 32.13L37.71 30.96C39.38 30.31 40.8 29.79 40.86 29.79ZM32.63 31.13C32.98 31.16 33.22 31.23 33.43 31.38C33.6 31.5 33.8 31.76 33.89 31.96C33.98 32.15 34.05 32.44 34.05 32.58C34.05 32.73 33.98 33 33.89 33.2C33.8 33.39 33.6 33.65 33.43 33.78C33.23 33.92 32.96 34.01 32.67 34.03C32.38 34.06 32.14 34.02 31.95 33.92C31.79 33.84 31.56 33.67 31.44 33.54C31.32 33.4 31.18 33.13 31.13 32.93C31.07 32.7 31.07 32.46 31.14 32.22C31.18 32.03 31.29 31.79 31.38 31.68C31.46 31.58 31.66 31.41 31.83 31.3C32.08 31.15 32.25 31.11 32.63 31.13ZM30.63 33.7C30.69 33.7 30.87 33.87 31.37 34.44L30.27 36.88C29.68 38.22 29.05 39.6 28.64 40.52L28.22 40.29C27.99 40.15 27.5 39.83 27.14 39.55C26.78 39.28 26.29 38.83 26.04 38.57C25.8 38.3 25.41 37.8 25.19 37.46C24.96 37.12 24.7 36.67 24.6 36.46C24.5 36.25 24.45 36.06 24.47 36.05C24.49 36.03 25.87 35.49 27.53 34.85C29.19 34.22 30.59 33.7 30.63 33.7ZM31.97 34.7L33.03 34.73L34.21 37.82C34.86 39.53 35.35 40.94 35.33 40.96C35.3 40.99 35.01 41.08 34.69 41.17C34.33 41.26 33.64 41.35 32.94 41.38C32.09 41.41 31.59 41.39 31.03 41.29C30.62 41.21 30.07 41.07 29.79 40.97C29.48 40.86 29.31 40.76 29.33 40.69C29.35 40.62 29.8 39.57 30.35 38.34C30.89 37.13 31.48 35.81 31.65 35.41L31.97 34.7Z" fill="#F7F7F7" fill-opacity="1.000000" fill-rule="evenodd"/>
		<path id="Vector" d="M32.45 21.89C33.15 21.89 33.96 21.94 34.4 22.01C34.82 22.08 35.52 22.27 35.96 22.43C36.39 22.58 37.06 22.85 37.42 23.04C37.78 23.23 38.39 23.59 38.75 23.85C39.12 24.1 39.72 24.61 40.08 24.98C40.46 25.35 40.97 25.96 41.23 26.32C41.48 26.69 41.85 27.29 42.04 27.65C42.21 28.02 42.48 28.62 42.6 28.98C42.74 29.35 42.92 30.04 43.01 30.51C43.14 31.1 43.19 31.74 43.19 32.51C43.19 33.14 43.15 33.88 43.1 34.17C43.06 34.47 42.91 35.07 42.79 35.51C42.66 35.94 42.39 36.67 42.18 37.1C41.97 37.54 41.59 38.22 41.33 38.61C41.06 39 40.5 39.66 40.08 40.08C39.67 40.49 39.01 41.05 38.62 41.32C38.23 41.58 37.55 41.97 37.11 42.17C36.68 42.38 35.95 42.65 35.51 42.78C35.08 42.91 34.48 43.05 34.18 43.09C33.89 43.15 33.15 43.18 32.54 43.18C31.93 43.18 31.09 43.13 30.68 43.06C30.26 42.99 29.57 42.8 29.13 42.64C28.68 42.49 28.02 42.21 27.66 42.03C27.3 41.84 26.71 41.49 26.37 41.26C26.04 41.01 25.5 40.58 25.19 40.29C24.87 40 24.37 39.43 24.05 39.01C23.74 38.59 23.31 37.92 23.1 37.5C22.89 37.08 22.59 36.38 22.43 35.95C22.28 35.51 22.09 34.81 22.02 34.4C21.95 33.98 21.89 33.15 21.89 32.53C21.89 31.92 21.95 31.09 22.03 30.67C22.1 30.25 22.27 29.58 22.41 29.16C22.55 28.74 22.85 28.05 23.07 27.61C23.3 27.17 23.56 26.73 23.8 26.44L24.89 26.9L24.5 27.52C24.29 27.86 23.98 28.46 23.81 28.85C23.65 29.24 23.42 29.92 23.3 30.36C23.13 31.04 23.09 31.37 23.09 32.58C23.09 33.78 23.13 34.12 23.3 34.8C23.42 35.23 23.66 35.93 23.84 36.35C24.01 36.77 24.39 37.44 24.66 37.86C24.94 38.27 25.48 38.92 25.86 39.3C26.24 39.68 26.77 40.15 27.04 40.33C27.31 40.52 27.85 40.84 28.24 41.03C28.63 41.23 29.25 41.49 29.61 41.61C29.98 41.73 30.54 41.89 30.86 41.95C31.17 42.01 31.95 42.05 32.59 42.05C33.34 42.05 33.99 42 34.45 41.89C34.84 41.81 35.5 41.62 35.91 41.47C36.33 41.32 37 40.99 37.42 40.73C38.09 40.33 38.18 40.24 38.18 40.02C38.18 39.83 38.13 39.76 37.98 39.74C37.86 39.72 37.62 39.82 37.4 39.97C37.19 40.11 36.81 40.33 36.55 40.47C36.3 40.59 36.07 40.69 36.05 40.67C36.03 40.66 35.49 39.29 34.85 37.64C34.21 35.98 33.69 34.58 33.69 34.53C33.69 34.48 33.85 34.29 34.36 33.76L37.4 35.12C39.07 35.87 40.45 36.52 40.44 36.57C40.44 36.62 40.24 36.96 40 37.32C39.77 37.69 39.37 38.22 39.12 38.5C38.87 38.78 38.66 39.06 38.66 39.12C38.66 39.18 38.71 39.29 38.77 39.35C38.83 39.41 38.96 39.45 39.04 39.45C39.12 39.45 39.45 39.14 39.77 38.76C40.08 38.39 40.49 37.82 40.69 37.5C40.87 37.18 41.13 36.69 41.25 36.39C41.39 36.1 41.6 35.5 41.72 35.06C41.91 34.44 41.97 34 42.01 33.07C42.04 32.29 42.03 31.61 41.95 31.16C41.89 30.77 41.74 30.13 41.62 29.74C41.49 29.35 41.24 28.71 41.04 28.32C40.85 27.93 40.51 27.35 40.28 27.03C40.06 26.71 39.58 26.16 39.22 25.81C38.87 25.46 38.23 24.94 37.79 24.65C37.37 24.37 36.7 24.01 36.31 23.85C35.92 23.69 35.24 23.46 34.8 23.35C34.37 23.23 33.62 23.12 33.16 23.08C32.65 23.04 32.01 23.06 31.52 23.12C31.09 23.18 30.42 23.31 30.06 23.4C29.69 23.5 29.13 23.7 28.81 23.83C28.5 23.96 27.97 24.25 27.04 24.81L26.87 24.43C26.78 24.23 26.68 23.97 26.65 23.86C26.61 23.7 26.65 23.62 26.84 23.49C26.98 23.4 27.4 23.17 27.79 22.98C28.18 22.78 28.82 22.52 29.21 22.39C29.6 22.27 30.15 22.13 30.41 22.07C30.68 22.02 30.98 21.96 31.08 21.94C31.17 21.92 31.8 21.9 32.45 21.89ZM25.66 23.42C25.71 23.44 26.05 24.16 26.39 25.02C26.75 25.89 27.02 26.65 27 26.72C26.97 26.79 26.86 26.85 26.75 26.85C26.64 26.85 25.91 26.6 25.13 26.28C24.35 25.96 23.68 25.67 23.64 25.63C23.6 25.59 23.59 25.47 23.61 25.35C23.63 25.22 23.91 24.85 24.22 24.51C24.53 24.17 24.95 23.78 25.18 23.64C25.39 23.51 25.61 23.4 25.66 23.42ZM32.81 23.78C33.81 23.81 34.26 23.86 34.87 24.02C35.28 24.14 35.67 24.28 35.73 24.33C35.8 24.39 35.44 25.28 33.14 30.45L32.1 30.45L31.86 29.83C31.73 29.49 31.41 28.65 31.15 27.96C30.88 27.28 30.61 26.66 30.54 26.59C30.44 26.49 30.38 26.48 30.25 26.55C30.17 26.61 30.08 26.7 30.07 26.77C30.06 26.85 30.37 27.76 30.76 28.81C31.16 29.85 31.47 30.71 31.45 30.71C31.44 30.71 31.27 30.87 30.72 31.39L27.71 30.04C26.05 29.3 24.68 28.68 24.66 28.66C24.65 28.65 24.75 28.43 24.88 28.18C25.03 27.93 25.23 27.6 25.58 27.2L26.06 27.39C26.41 27.53 26.65 27.56 26.88 27.53C27.1 27.49 27.3 27.39 27.44 27.21C27.59 27.03 27.66 26.84 27.66 26.61C27.66 26.43 27.57 26.1 27.3 25.48L27.52 25.3C27.64 25.2 28.03 24.97 28.39 24.78C28.74 24.59 29.06 24.48 29.1 24.51C29.13 24.56 29.26 24.85 29.37 25.17C29.57 25.69 29.6 25.75 29.84 25.75C30.03 25.75 30.11 25.7 30.13 25.57C30.15 25.47 30.06 25.12 29.7 24.19L29.99 24.1C30.15 24.05 30.56 23.95 30.9 23.88C31.33 23.79 31.91 23.77 32.81 23.78ZM36.46 24.65L36.74 24.79C36.9 24.87 37.31 25.13 37.68 25.38C38.04 25.63 38.64 26.15 39.01 26.55C39.38 26.94 39.9 27.63 40.15 28.06C40.41 28.5 40.62 28.92 40.62 29.01C40.62 29.09 40.56 29.18 40.5 29.2C40.45 29.21 39.05 29.74 34.45 31.49L34.11 31.14C33.93 30.95 33.78 30.77 33.78 30.71C33.78 30.66 34.39 29.28 35.12 27.64L36.46 24.65ZM24.51 29.37C24.61 29.4 25.99 30 30.46 32L30.41 33.02L27.37 34.19C25.7 34.84 24.29 35.37 24.23 35.37C24.17 35.37 24.06 35.13 23.98 34.8C23.91 34.48 23.81 33.86 23.76 33.4C23.69 32.83 23.69 32.32 23.76 31.73C23.81 31.27 23.9 30.73 23.94 30.54C24 30.34 24.1 29.99 24.18 29.76C24.3 29.39 24.35 29.33 24.51 29.37ZM40.86 29.79C40.93 29.78 41.01 29.93 41.06 30.12C41.1 30.3 41.18 30.63 41.24 30.85C41.28 31.07 41.35 31.65 41.39 32.13C41.41 32.67 41.4 33.29 41.33 33.69C41.28 34.05 41.15 34.67 41.04 35.05C40.93 35.44 40.8 35.77 40.75 35.79C40.7 35.82 39.33 35.23 34.71 33.18L34.66 32.13L37.71 30.96C39.38 30.31 40.8 29.79 40.86 29.79ZM32.63 31.13C32.98 31.16 33.22 31.23 33.43 31.38C33.6 31.5 33.8 31.76 33.89 31.96C33.98 32.15 34.05 32.44 34.05 32.58C34.05 32.73 33.98 33 33.89 33.2C33.8 33.39 33.6 33.65 33.43 33.78C33.23 33.92 32.96 34.01 32.67 34.03C32.38 34.06 32.14 34.02 31.95 33.92C31.79 33.84 31.56 33.67 31.44 33.54C31.32 33.4 31.18 33.13 31.13 32.93C31.07 32.7 31.07 32.46 31.14 32.22C31.18 32.03 31.29 31.79 31.38 31.68C31.46 31.58 31.66 31.41 31.83 31.3C32.08 31.15 32.25 31.11 32.63 31.13ZM30.63 33.7C30.69 33.7 30.87 33.87 31.37 34.44L30.27 36.88C29.68 38.22 29.05 39.6 28.64 40.52L28.22 40.29C27.99 40.15 27.5 39.83 27.14 39.55C26.78 39.28 26.29 38.83 26.04 38.57C25.8 38.3 25.41 37.8 25.19 37.46C24.96 37.12 24.7 36.67 24.6 36.46C24.5 36.25 24.45 36.06 24.47 36.05C24.49 36.03 25.87 35.49 27.53 34.85C29.19 34.22 30.59 33.7 30.63 33.7ZM31.97 34.7L33.03 34.73L34.21 37.82C34.86 39.53 35.35 40.94 35.33 40.96C35.3 40.99 35.01 41.08 34.69 41.17C34.33 41.26 33.64 41.35 32.94 41.38C32.09 41.41 31.59 41.39 31.03 41.29C30.62 41.21 30.07 41.07 29.79 40.97C29.48 40.86 29.31 40.76 29.33 40.69C29.35 40.62 29.8 39.57 30.35 38.34C30.89 37.13 31.48 35.81 31.65 35.41L31.97 34.7Z" fill="#FF23C8" fill-opacity="1.000000" fill-rule="evenodd"/>
	</g>
</svg>
