<svg width="79" height="79" viewBox="0 0 79 79" fill="none" xmlns="http://www.w3.org/2000/svg">
<g filter="url(#filter0_b_1_245)">
<circle cx="39.5" cy="39.5" r="39.5" fill="#FB48FF" fill-opacity="0.1"/>
<circle cx="39.5" cy="39.5" r="39" stroke="url(#paint0_linear_1_245)" stroke-opacity="0.3"/>
</g>
<path fill-rule="evenodd" clip-rule="evenodd" d="M21.379 28.3783C21.016 28.7413 21.0159 28.7717 21.0008 32.0363L21.0007 32.0401V35.3388C22.2718 35.7928 22.877 36.2013 23.3159 36.6099C23.7395 37.0184 24.1481 37.5934 24.2994 37.9868C24.4356 38.3651 24.5567 39.0461 24.5567 39.5C24.5567 39.9539 24.4356 40.6349 24.2994 41.0132C24.1481 41.4066 23.7395 41.9816 23.3159 42.3901C22.877 42.7987 22.2718 43.2072 21.7876 43.3737L21.0007 43.6612V50.2434L21.7573 51H31.5928C31.5928 48.1704 31.6382 47.9283 31.8955 47.6711C32.0619 47.5046 32.3343 47.3684 32.5007 47.3684C32.6672 47.3684 32.9395 47.5046 33.106 47.6711C33.3632 47.9283 33.4086 48.1704 33.4086 49.4868V51H56.5751C56.7745 50.7965 56.9203 50.6478 57.0268 50.4748C57.3165 50.0048 57.3165 49.3563 57.3165 46.9447V43.6612C56.0455 43.2072 55.4402 42.7987 55.0014 42.3901C54.5777 41.9816 54.1692 41.4066 54.0178 41.0132C53.8817 40.6349 53.7606 39.9539 53.7606 39.5C53.7606 39.0461 53.8817 38.3651 54.0178 37.9868C54.1692 37.5934 54.5777 37.0184 55.0014 36.6099C55.4402 36.2013 56.0455 35.7928 56.5297 35.6263L57.3165 35.3388V28.7566L56.5599 28H33.4086C33.4086 30.8296 33.3632 31.0717 33.106 31.3289C32.9395 31.4954 32.6672 31.6316 32.5007 31.6316C32.3343 31.6316 32.0619 31.4954 31.8955 31.3289C31.6382 31.0717 31.5928 30.8296 31.5928 29.5132V28H21.7422L21.379 28.3783ZM38.1187 33.9467C38.3154 33.7651 38.6786 33.5079 38.9358 33.3868C39.1931 33.2506 39.6924 33.1447 40.0707 33.1447C40.449 33.1447 41.024 33.2809 41.3569 33.4322C41.6898 33.5684 42.1437 33.9164 42.3707 34.1737C42.6128 34.446 42.8549 34.9151 42.9457 35.2329C43.0213 35.5355 43.097 35.9592 43.097 36.171C43.097 36.3829 42.9154 36.9125 42.6884 37.3664C42.3858 37.9414 42.0832 38.2894 41.6595 38.5316C41.3266 38.7131 40.8121 38.925 40.5246 38.9704C40.222 39.0309 39.7378 39.0006 39.3898 38.8947C39.0569 38.7888 38.5575 38.5316 38.27 38.3046C37.9825 38.0927 37.6194 37.6388 37.4681 37.3059C37.3167 36.973 37.1957 36.4283 37.1957 36.0954C37.1957 35.7625 37.3319 35.2177 37.4832 34.8848C37.6345 34.5519 37.922 34.1283 38.1187 33.9467ZM43.1878 39.1973C45.0641 36.4131 46.7437 33.9769 46.9253 33.7954C47.0917 33.5987 47.3792 33.4473 47.5457 33.4473C47.7273 33.4473 47.9845 33.5684 48.1358 33.7197C48.2871 33.8559 48.4082 34.1434 48.3931 34.3552C48.3931 34.5973 47.1977 36.5039 45.1246 39.5756C43.324 42.2388 41.6898 44.6447 41.4931 44.9171C41.2509 45.2399 41.0038 45.4013 40.7516 45.4013C40.5398 45.4013 40.2371 45.2651 40.0707 45.0987C39.9042 44.9322 39.7681 44.675 39.7681 44.5388C39.7681 44.3875 41.2963 41.9816 43.1878 39.1973ZM31.824 34.1737C31.5819 34.4158 31.5516 34.6881 31.5667 36.1105C31.5819 37.0184 31.6575 37.8355 31.7181 37.9263C31.7786 38.0171 31.9904 38.1835 32.2023 38.2743C32.52 38.4408 32.6411 38.4256 32.9588 38.1684C33.322 37.896 33.3371 37.7901 33.3825 36.2316C33.3977 34.9605 33.3674 34.5066 33.1858 34.2493C33.0345 34.0223 32.8075 33.9013 32.52 33.9013C32.2931 33.9013 31.9753 34.0223 31.824 34.1737ZM46.3503 40.6197C46.6075 40.4381 47.0463 40.2112 47.3338 40.1204C47.6213 40.0447 48.1207 39.9993 48.4233 40.0296C48.7411 40.075 49.2707 40.2414 49.6036 40.4079C49.9365 40.5743 50.3299 40.8921 50.4812 41.1342C50.6477 41.3612 50.8444 41.7848 50.9503 42.0723C51.0411 42.3598 51.1167 42.8138 51.1167 43.0559C51.1167 43.3131 50.9806 43.7822 50.8292 44.1151C50.6779 44.448 50.3904 44.8717 50.1937 45.0533C49.997 45.2348 49.5733 45.4921 49.2556 45.6131C48.9529 45.7493 48.4233 45.8552 48.0904 45.8552C47.7575 45.8552 47.2279 45.7191 46.9102 45.5677C46.6075 45.4164 46.199 45.1138 46.0174 44.9171C45.8358 44.7355 45.5786 44.3118 45.4575 44.0092C45.3213 43.6914 45.2154 43.177 45.2154 42.8743C45.2154 42.5566 45.3667 41.9967 45.5634 41.6335C45.745 41.2552 46.0931 40.8013 46.3503 40.6197ZM32.1266 40.7559C31.9602 40.8467 31.7786 40.998 31.7181 41.0888C31.6575 41.1644 31.597 41.9967 31.597 42.9046C31.5819 44.3118 31.6273 44.6144 31.8542 44.8263C32.0056 44.9776 32.3082 45.0987 32.5352 45.0987C32.8075 45.0987 33.0345 44.9776 33.1858 44.7658C33.3523 44.5085 33.4128 43.9941 33.4128 42.7987C33.4128 41.1947 33.4128 41.1644 32.9891 40.8618C32.7621 40.6802 32.5503 40.5592 32.5049 40.5592C32.4595 40.5592 32.2931 40.65 32.1266 40.7559Z" fill="#FB48FF"/>
<path d="M38.975 35.9895C38.9599 35.8079 39.1112 35.5052 39.3079 35.3085C39.5046 35.1118 39.8527 34.9605 40.0948 34.9605C40.352 34.9605 40.6698 35.1118 40.8968 35.3388C41.1086 35.5506 41.275 35.823 41.275 35.9441C41.275 36.0651 41.1843 36.3375 41.0935 36.5493C40.9875 36.7612 40.7303 37.0033 40.5185 37.0941C40.2612 37.2 40.004 37.2 39.7316 37.0789C39.4895 37.0033 39.2474 36.7914 39.1566 36.625C39.0658 36.4585 38.9902 36.171 38.975 35.9895Z" fill="#FB48FF"/>
<path d="M47.2066 42.3599C47.3125 42.1934 47.5244 41.9967 47.706 41.921C47.8724 41.8454 48.175 41.8151 48.3869 41.8605C48.5987 41.9059 48.8862 42.0875 49.0375 42.2691C49.1889 42.4506 49.3099 42.7533 49.2948 42.9349C49.2948 43.1316 49.1283 43.4493 48.9165 43.6612C48.6895 43.9033 48.3869 44.0395 48.0843 44.0395C47.7665 44.0395 47.5395 43.9184 47.3277 43.6309C47.1461 43.3888 47.0099 43.0862 47.025 42.95C47.025 42.7987 47.1007 42.5414 47.2066 42.3599Z" fill="#FB48FF"/>
<defs>
<filter id="filter0_b_1_245" x="-24.9" y="-24.9" width="128.8" height="128.8" filterUnits="userSpaceOnUse" color-interpolation-filters="sRGB">
<feFlood flood-opacity="0" result="BackgroundImageFix"/>
<feGaussianBlur in="BackgroundImageFix" stdDeviation="12.45"/>
<feComposite in2="SourceAlpha" operator="in" result="effect1_backgroundBlur_1_245"/>
<feBlend mode="normal" in="SourceGraphic" in2="effect1_backgroundBlur_1_245" result="shape"/>
</filter>
<linearGradient id="paint0_linear_1_245" x1="39.5" y1="0" x2="39.5" y2="79" gradientUnits="userSpaceOnUse">
<stop stop-color="#FB48FF"/>
<stop offset="0.627766" stop-color="#FB48FF" stop-opacity="0"/>
</linearGradient>
</defs>
</svg>
