<svg width="19" height="20" viewBox="0 0 19 20" fill="none" xmlns="http://www.w3.org/2000/svg">
<g opacity="0.1">
<path fill-rule="evenodd" clip-rule="evenodd" d="M13.3973 9.94631C12.3019 9.94631 11.2647 10.1693 10.3922 10.5376C13.4554 11.4294 15.6171 13.5523 15.6656 16.0242C17.2553 15.8109 18.9614 15.2196 18.9614 13.5717C18.9614 11.6039 16.412 9.94631 13.3973 9.94631Z" fill="url(#paint0_linear_1_131)"/>
<path fill-rule="evenodd" clip-rule="evenodd" d="M13.3682 8.55045H13.3973C15.462 8.55045 17.139 6.87346 17.139 4.80872C17.139 2.74398 15.462 1.06698 13.3973 1.06698C12.9902 1.06698 12.6024 1.13484 12.2341 1.25116C12.9029 2.23991 13.2907 3.43223 13.2907 4.71178C13.2907 6.0592 12.8545 7.30967 12.1177 8.3275C12.5055 8.47291 12.932 8.55045 13.3682 8.55045Z" fill="url(#paint1_linear_1_131)"/>
<path fill-rule="evenodd" clip-rule="evenodd" d="M7.12413 11.5353C3.28352 11.5353 0.0390625 13.634 0.0390625 16.1184C0.0390625 18.9674 4.08227 19.297 7.12413 19.297C8.87673 19.297 14.2092 19.297 14.2092 16.0991C14.2092 13.6252 10.9647 11.5353 7.12413 11.5353Z" fill="url(#paint2_linear_1_131)"/>
<path fill-rule="evenodd" clip-rule="evenodd" d="M7.09382 9.43092H7.1229C9.7237 9.43092 11.8388 7.31577 11.8388 4.71594C11.8388 2.11515 9.7237 0 7.1229 0C4.52404 0 2.4089 2.11515 2.4089 4.714C2.40405 5.96933 2.88776 7.15098 3.77279 8.04182C4.65782 8.93266 5.83656 9.42607 7.09382 9.43092Z" fill="url(#paint3_linear_1_131)"/>
</g>
<defs>
<linearGradient id="paint0_linear_1_131" x1="9.50023" y1="0" x2="9.50023" y2="19.297" gradientUnits="userSpaceOnUse">
<stop stop-color="white"/>
<stop offset="1" stop-color="white" stop-opacity="0"/>
</linearGradient>
<linearGradient id="paint1_linear_1_131" x1="9.50023" y1="0" x2="9.50023" y2="19.297" gradientUnits="userSpaceOnUse">
<stop stop-color="white"/>
<stop offset="1" stop-color="white" stop-opacity="0"/>
</linearGradient>
<linearGradient id="paint2_linear_1_131" x1="9.50023" y1="0" x2="9.50023" y2="19.297" gradientUnits="userSpaceOnUse">
<stop stop-color="white"/>
<stop offset="1" stop-color="white" stop-opacity="0"/>
</linearGradient>
<linearGradient id="paint3_linear_1_131" x1="9.50023" y1="0" x2="9.50023" y2="19.297" gradientUnits="userSpaceOnUse">
<stop stop-color="white"/>
<stop offset="1" stop-color="white" stop-opacity="0"/>
</linearGradient>
</defs>
</svg>
