<svg width="128.199951" height="128.200012" viewBox="0 0 128.2 128.2" fill="none" xmlns="http://www.w3.org/2000/svg" xmlns:xlink="http://www.w3.org/1999/xlink">
	<desc>
			Created with Pixso.
	</desc>
	<defs>
		<filter id="filter_1_93_dd" x="24.599976" y="24.600006" width="79.000000" height="79.000000" filterUnits="userSpaceOnUse" color-interpolation-filters="sRGB">
			<feFlood flood-opacity="0" result="BackgroundImageFix"/>
			<feGaussianBlur in="BackgroundImage" stdDeviation="8.3"/>
			<feComposite in2="SourceAlpha" operator="in" result="effect_backgroundBlur_1"/>
			<feBlend mode="normal" in="SourceGraphic" in2="effect_backgroundBlur_1" result="shape"/>
		</filter>
		<filter id="filter_1_94_dd" x="44.144897" y="44.146393" width="39.907227" height="39.907227" filterUnits="userSpaceOnUse" color-interpolation-filters="sRGB">
			<feFlood flood-opacity="0" result="BackgroundImageFix"/>
			<feGaussianBlur in="BackgroundImage" stdDeviation="23.6186"/>
			<feComposite in2="SourceAlpha" operator="in" result="effect_backgroundBlur_1"/>
			<feBlend mode="normal" in="SourceGraphic" in2="effect_backgroundBlur_1" result="shape"/>
		</filter>
		<filter id="filter_1_95_dd" x="0.000000" y="0.000000" width="128.199951" height="128.200012" filterUnits="userSpaceOnUse" color-interpolation-filters="sRGB">
			<feFlood flood-opacity="0" result="BackgroundImageFix"/>
			<feBlend mode="normal" in="SourceGraphic" in2="BackgroundImageFix" result="shape"/>
			<feGaussianBlur stdDeviation="8.2" result="effect_layerBlur_1"/>
		</filter>
		<filter id="filter_1_97_dd" x="44.144897" y="44.146393" width="39.907227" height="39.907227" filterUnits="userSpaceOnUse" color-interpolation-filters="sRGB">
			<feFlood flood-opacity="0" result="BackgroundImageFix"/>
			<feGaussianBlur in="BackgroundImage" stdDeviation="23.6186"/>
			<feComposite in2="SourceAlpha" operator="in" result="effect_backgroundBlur_1"/>
			<feBlend mode="normal" in="SourceGraphic" in2="effect_backgroundBlur_1" result="shape"/>
		</filter>
		<linearGradient x1="64.099976" y1="24.600006" x2="64.099976" y2="103.600006" id="paint_linear_1_93_0" gradientUnits="userSpaceOnUse">
			<stop stop-color="#FB48FF"/>
			<stop offset="0.627766" stop-color="#FB48FF" stop-opacity="0.000000"/>
		</linearGradient>
	</defs>
	<g filter="url(#filter_1_93_dd)">
		<circle id="Ellipse 2236" cx="64.099976" cy="64.100006" r="39.500000" fill="#FB48FF" fill-opacity="0.100000"/>
		<circle id="Ellipse 2236" cx="64.099976" cy="64.100006" r="39.000000" stroke="url(#paint_linear_1_93_0)" stroke-opacity="0.300000" stroke-width="1.000000"/>
	</g>
	<g filter="url(#filter_1_94_dd)">
		<rect id="Iconly/Curved/Bold/2 User" rx="0.000000" width="38.990978" height="38.990978" transform="translate(44.603016 44.604511)" fill="#FFFFFF" fill-opacity="0"/>
		<path id="Vector" d="M60.02 63.72L59.97 63.72C57.81 63.71 55.79 62.87 54.27 61.34C52.75 59.81 51.92 57.78 51.93 55.63C51.93 51.17 55.56 47.54 60.02 47.54C64.48 47.54 68.11 51.17 68.11 55.63C68.11 60.09 64.48 63.72 60.02 63.72ZM70.78 62.21L70.73 62.21C69.98 62.21 69.25 62.08 68.58 61.83C69.85 60.08 70.6 57.94 70.6 55.63C70.6 53.43 69.93 51.39 68.78 49.69C69.42 49.49 70.08 49.37 70.78 49.37C74.32 49.37 77.2 52.25 77.2 55.79C77.2 59.33 74.32 62.21 70.78 62.21ZM65.62 65.62C67.12 64.99 68.9 64.61 70.78 64.61C75.95 64.61 80.32 67.45 80.32 70.82C80.32 73.65 77.4 74.67 74.67 75.03C74.59 70.79 70.88 67.15 65.62 65.62ZM60.02 67.33C53.43 67.33 47.87 70.93 47.87 75.19C47.87 80.08 54.8 80.65 60.02 80.65C63.02 80.65 72.17 80.65 72.17 75.16C72.17 70.92 66.61 67.33 60.02 67.33Z" fill="#FB48FF" fill-opacity="1.000000" fill-rule="evenodd"/>
		<rect id="Iconly/Curved/Bold/2 User" rx="0.000000" width="38.990978" height="38.990978" transform="translate(44.603016 44.604511)" stroke="#FFFFFF" stroke-opacity="0" stroke-width="0.916237"/>
	</g>
	<g opacity="0.750000" filter="url(#filter_1_95_dd)" style="mix-blend-mode:hard-light">
		<circle id="Ellipse 2236" cx="64.099976" cy="64.100006" r="39.500000" fill="#FB48FF" fill-opacity="0.100000"/>
		<g filter="url(#filter_1_97_dd)">
			<rect id="Iconly/Curved/Bold/2 User" rx="0.000000" width="38.990978" height="38.990978" transform="translate(44.603016 44.604511)" fill="#FFFFFF" fill-opacity="0"/>
			<path id="Vector" d="M60.02 63.72L59.97 63.72C57.81 63.71 55.79 62.87 54.27 61.34C52.75 59.81 51.92 57.78 51.93 55.63C51.93 51.17 55.56 47.54 60.02 47.54C64.48 47.54 68.11 51.17 68.11 55.63C68.11 60.09 64.48 63.72 60.02 63.72ZM70.78 62.21L70.73 62.21C69.98 62.21 69.25 62.08 68.58 61.83C69.85 60.08 70.6 57.94 70.6 55.63C70.6 53.43 69.93 51.39 68.78 49.69C69.42 49.49 70.08 49.37 70.78 49.37C74.32 49.37 77.2 52.25 77.2 55.79C77.2 59.33 74.32 62.21 70.78 62.21ZM65.62 65.62C67.12 64.99 68.9 64.61 70.78 64.61C75.95 64.61 80.32 67.45 80.32 70.82C80.32 73.65 77.4 74.67 74.67 75.03C74.59 70.79 70.88 67.15 65.62 65.62ZM60.02 67.33C53.43 67.33 47.87 70.93 47.87 75.19C47.87 80.08 54.8 80.65 60.02 80.65C63.02 80.65 72.17 80.65 72.17 75.16C72.17 70.92 66.61 67.33 60.02 67.33Z" fill="#FB48FF" fill-opacity="1.000000" fill-rule="evenodd"/>
			<rect id="Iconly/Curved/Bold/2 User" rx="0.000000" width="38.990978" height="38.990978" transform="translate(44.603016 44.604511)" stroke="#FFFFFF" stroke-opacity="0" stroke-width="0.916237"/>
		</g>
	</g>
</svg>
