<svg width="84.455688" height="82.643402" viewBox="0 0 84.4557 82.6434" fill="none" xmlns="http://www.w3.org/2000/svg" xmlns:xlink="http://www.w3.org/1999/xlink">
	<desc>
			Created with Pixso.
	</desc>
	<defs>
		<linearGradient x1="5.342863" y1="24.823624" x2="80.936401" y2="57.859375" id="paint_linear_1_141_0" gradientUnits="userSpaceOnUse">
			<stop stop-color="#FFFFFF"/>
			<stop offset="0.659174" stop-color="#FFFFFF" stop-opacity="0.000000"/>
		</linearGradient>
	</defs>
	<g opacity="0.020000">
		<path id="Vector" d="M5.2 25.14C6.26 22.63 7.7 19.85 8.64 18.38C9.54 17.01 11.29 14.81 12.53 13.52C13.74 12.21 15.75 10.27 16.98 9.27C18.21 8.26 20.43 6.69 21.91 5.79C23.39 4.9 26.12 3.54 28.01 2.83C29.91 2.08 32.85 1.19 34.55 0.84C36.24 0.49 38.94 0.14 40.52 0.04C42.09 -0.02 44.65 -0.03 46.13 0.09C47.63 0.18 50.38 0.6 52.19 1.01C54.49 1.49 56.84 2.29 59.55 3.48C61.79 4.46 64.38 5.74 65.34 6.38C66.31 6.99 68.23 8.43 69.58 9.55C70.92 10.7 73.09 12.77 74.3 14.2C75.53 15.6 77.36 18.02 78.34 19.57C79.31 21.12 80.77 24.12 81.61 26.25C82.44 28.38 83.41 31.58 83.75 33.38C84.09 35.18 84.38 38.2 84.43 40.06C84.51 41.93 84.33 44.93 84.13 46.68C83.89 48.42 83.46 50.78 83.16 51.89C82.9 53.01 81.88 55.68 80.93 57.85C79.98 60.03 78.5 62.91 77.6 64.28C76.7 65.65 74.96 67.82 73.71 69.15C72.48 70.49 70.49 72.39 69.26 73.39C68.04 74.4 65.9 75.94 64.52 76.77C63.12 77.58 60.77 78.84 59.24 79.49C57.75 80.15 54.92 81.05 52.94 81.54C50.98 81.99 47.93 82.46 46.11 82.57C44.3 82.68 41.35 82.66 39.57 82.52C37.78 82.41 35 81.99 33.41 81.59C31.82 81.2 28.77 80.09 26.6 79.14C24.42 78.19 21.54 76.71 20.19 75.78C18.82 74.88 16.68 73.23 15.42 72.08C14.16 70.93 12.17 68.78 10.94 67.31C9.72 65.8 8.58 64.21 7.91 62.91L11.24 59.75L12.84 62.1C13.71 63.38 15.37 65.42 16.49 66.62C17.63 67.79 19.67 69.66 21.07 70.76C23.22 72.45 24.33 73.08 28.61 74.96C32.9 76.83 34.15 77.23 36.82 77.64C38.54 77.91 41.4 78.14 43.16 78.16C44.92 78.18 47.89 77.9 49.8 77.57C51.71 77.24 54.85 76.33 56.79 75.56C58.71 74.79 61.2 73.63 62.28 72.97C63.35 72.31 65.33 70.89 66.63 69.8C67.93 68.72 69.84 66.93 70.81 65.82C71.82 64.72 73.22 62.97 73.94 61.93C74.65 60.89 76.01 58.22 77 55.95C78.17 53.27 78.99 50.89 79.32 49.08C79.65 47.57 79.97 44.94 80.08 43.22C80.19 41.51 80.08 38.6 79.81 36.72C79.42 33.74 79.25 33.29 78.46 32.94C77.76 32.64 77.44 32.69 77.15 33.2C76.9 33.58 76.87 34.61 77.07 35.6C77.24 36.58 77.44 38.28 77.51 39.4C77.57 40.47 77.56 41.44 77.45 41.51C77.39 41.56 71.7 41.36 64.82 41.06C57.93 40.75 52.19 40.42 52 40.33C51.81 40.25 51.38 39.43 50.29 36.77L59.87 28.08C65.1 23.32 69.54 19.44 69.71 19.55C69.9 19.64 70.8 20.85 71.72 22.27C72.65 23.65 73.92 25.9 74.53 27.25C75.12 28.56 75.81 29.72 76 29.81C76.22 29.9 76.67 29.91 76.99 29.79C77.3 29.66 77.65 29.29 77.78 29.01C77.91 28.69 77.32 27.04 76.46 25.32C75.62 23.64 74.24 21.31 73.41 20.12C72.56 18.96 71.2 17.27 70.35 16.38C69.52 15.45 67.7 13.76 66.35 12.64C64.44 11.02 62.96 10.11 59.7 8.54C57.02 7.21 54.56 6.22 52.83 5.8C51.36 5.38 48.86 4.92 47.28 4.76C45.7 4.59 43.03 4.52 41.35 4.6C39.66 4.69 37.08 4.99 35.59 5.32C34.11 5.61 31.42 6.46 29.61 7.17C27.83 7.89 24.98 9.35 23.29 10.45C21.62 11.52 19.3 13.32 18.13 14.46C16.95 15.6 15.07 17.66 14.02 19.04C12.94 20.41 11.37 22.88 10.53 24.46C9.57 26.22 8.64 28.51 8.11 30.34C7.65 31.98 7.06 34.54 6.84 35.98C6.62 37.43 6.45 39.71 6.43 41.06C6.4 42.4 6.6 44.7 7.17 48.89L5.55 48.89C4.69 48.89 3.63 48.84 3.16 48.79C2.56 48.71 2.34 48.43 2.16 47.56C2.06 46.92 1.91 45.05 1.82 43.36C1.73 41.67 1.78 38.99 1.94 37.41C2.11 35.83 2.44 33.69 2.67 32.66C2.89 31.63 3.14 30.46 3.23 30.09C3.32 29.71 4.22 27.48 5.2 25.14ZM0.09 51.61C0.22 51.48 3.3 51.4 6.89 51.5C10.53 51.59 13.67 51.8 13.88 52C14.09 52.21 14.14 52.68 13.96 53.09C13.8 53.47 11.75 55.66 9.41 57.93C7.06 60.21 4.98 62.15 4.8 62.22C4.6 62.32 4.15 62.16 3.73 61.91C3.33 61.62 2.44 60.06 1.72 58.44C1 56.81 0.28 54.69 0.12 53.69C-0.02 52.72 -0.06 51.77 0.09 51.61ZM12.47 26.81C14.12 23.29 15.01 21.76 16.51 19.87C17.57 18.57 18.68 17.4 18.92 17.28C19.25 17.13 21.85 19.76 36.65 35.95L35.03 39.67L32.45 39.56C31.06 39.47 27.57 39.3 24.73 39.19C21.89 39.07 19.26 39.08 18.9 39.23C18.4 39.42 18.27 39.63 18.33 40.18C18.4 40.54 18.6 41.01 18.84 41.15C19.07 41.33 22.8 41.64 27.12 41.88C31.46 42.09 35 42.32 34.97 42.38C34.95 42.41 35.23 43.25 36.23 46.01L26.76 54.63C21.57 59.38 17.25 63.27 17.15 63.31C17.08 63.31 16.44 62.62 15.77 61.76C15.1 60.87 14.26 59.64 13.37 57.79L14.79 56.35C15.83 55.34 16.33 54.54 16.56 53.67C16.78 52.82 16.71 51.97 16.3 51.19C15.9 50.38 15.32 49.82 14.5 49.46C13.87 49.19 12.57 48.99 9.93 49.01L9.65 47.94C9.49 47.35 9.28 45.6 9.14 44.04C9.03 42.49 9.11 41.18 9.29 41.11C9.51 41.05 10.74 41.06 12.05 41.15C14.21 41.27 14.46 41.23 14.83 40.38C15.12 39.71 15.09 39.36 14.64 39.09C14.32 38.88 12.96 38.65 9.1 38.47L9.22 37.32C9.28 36.67 9.58 35.04 9.85 33.73C10.21 32.05 11.01 29.96 12.47 26.81ZM21.2 15.16L22.13 14.41C22.66 13.96 24.25 12.89 25.7 11.99C27.14 11.08 29.93 9.78 31.92 9.08C33.89 8.36 37.11 7.59 39.05 7.36C41 7.12 42.83 7.05 43.14 7.19C43.43 7.31 43.66 7.64 43.62 7.89C43.61 8.11 43.3 13.87 42.36 32.93L40.61 33.59C39.67 33.93 38.78 34.18 38.59 34.1C38.4 34.01 34.42 29.72 29.73 24.56L21.2 15.16ZM19.44 64.94C19.69 64.64 23.98 60.66 37.99 47.91L41.55 49.65L40.98 62.28C40.7 69.2 40.4 75.04 40.3 75.26C40.2 75.48 39.19 75.49 37.87 75.25C36.62 75 34.27 74.39 32.58 73.87C30.43 73.2 28.64 72.41 26.65 71.29C25.1 70.38 23.31 69.22 22.69 68.76C22.08 68.27 20.98 67.34 20.29 66.7C19.17 65.73 19.04 65.44 19.44 64.94ZM46.3 7.52C46.37 7.29 47.04 7.2 47.77 7.34C48.47 7.45 49.76 7.68 50.63 7.84C51.49 8.02 53.64 8.66 55.43 9.3C57.36 10.03 59.54 11.05 60.86 11.9C62.07 12.65 64.07 14.09 65.26 15.06C66.47 16.07 67.44 17.02 67.42 17.24C67.45 17.44 63.23 21.41 48.79 34.62L44.99 33.18L45.56 20.55C45.86 13.59 46.2 7.74 46.3 7.52ZM38.28 38.84C38.91 37.65 39.54 36.91 40.4 36.39C41.1 35.98 42.33 35.66 43.17 35.65C44 35.63 45.11 35.82 45.62 36.04C46.15 36.28 47.02 36.96 47.58 37.57C48.13 38.19 48.73 39.32 48.91 40.11C49.11 41.02 49 42.14 48.65 43.18C48.28 44.27 47.76 45.07 47.11 45.59C46.58 46.03 45.63 46.59 44.97 46.79C44.31 47.03 43.12 47.07 42.35 46.96C41.42 46.8 40.58 46.43 39.84 45.83C39.22 45.37 38.53 44.62 38.29 44.14C38.07 43.7 37.76 42.7 37.64 41.94C37.49 40.82 37.62 40.17 38.28 38.84ZM44.32 49.92C44.4 49.73 45.29 49.33 48.08 48.45L55.03 56.14C58.87 60.33 62.79 64.67 65.42 67.59L63.95 68.71C63.12 69.32 61.2 70.55 59.66 71.41C58.13 72.24 55.78 73.32 54.45 73.79C53.14 74.23 50.77 74.84 49.19 75.09C47.65 75.36 45.63 75.6 44.75 75.63C43.85 75.65 43.1 75.55 43.07 75.46C43.05 75.33 43.26 69.61 43.56 62.73C43.9 55.86 44.22 50.07 44.32 49.92ZM49.93 46.71L51.69 43.01L64.49 43.61C71.54 43.96 77.32 44.38 77.38 44.52C77.43 44.65 77.29 45.83 77.11 47.1C76.91 48.52 76.15 51.11 75.15 53.64C73.96 56.72 73.09 58.44 71.88 60.28C70.96 61.6 69.59 63.37 68.82 64.19C67.96 65.13 67.32 65.56 67.09 65.39C66.87 65.22 63.85 61.99 60.36 58.13C56.88 54.32 53.1 50.19 51.95 48.94L49.93 46.71Z" fill="url(#paint_linear_1_141_0)" fill-opacity="1.000000" fill-rule="evenodd"/>
		<path id="Vector" d="M8.64 18.38C9.54 17.01 11.29 14.81 12.53 13.52C13.74 12.21 15.75 10.27 16.98 9.27C18.21 8.26 20.43 6.69 21.91 5.79C23.39 4.9 26.12 3.54 28.01 2.83C29.91 2.08 32.85 1.19 34.55 0.84C36.24 0.49 38.94 0.14 40.52 0.04C42.09 -0.02 44.65 -0.03 46.13 0.09C47.63 0.18 50.38 0.6 52.19 1.01C54.49 1.49 56.84 2.29 59.55 3.48C61.79 4.46 64.38 5.74 65.34 6.38C66.31 6.99 68.23 8.43 69.58 9.55C70.92 10.7 73.09 12.77 74.3 14.2C75.53 15.6 77.36 18.02 78.34 19.57C79.31 21.12 80.77 24.12 81.61 26.25C82.44 28.38 83.41 31.58 83.75 33.38C84.09 35.18 84.38 38.2 84.43 40.06C84.51 41.93 84.33 44.93 84.13 46.68C83.89 48.42 83.46 50.78 83.16 51.89C82.9 53.01 81.88 55.68 80.93 57.85C79.98 60.03 78.5 62.91 77.6 64.28C76.7 65.65 74.96 67.82 73.71 69.15C72.48 70.49 70.49 72.39 69.26 73.39C68.04 74.4 65.9 75.94 64.52 76.77C63.12 77.58 60.77 78.84 59.24 79.49C57.75 80.15 54.92 81.05 52.94 81.54C50.98 81.99 47.93 82.46 46.11 82.57C44.3 82.68 41.35 82.66 39.57 82.52C37.78 82.41 35 81.99 33.41 81.59C31.82 81.2 28.77 80.09 26.6 79.14C24.42 78.19 21.54 76.71 20.19 75.78C18.82 74.88 16.68 73.23 15.42 72.08C14.16 70.93 12.17 68.78 10.94 67.31C9.72 65.8 8.58 64.21 7.91 62.91L11.24 59.75L12.84 62.1C13.71 63.38 15.37 65.42 16.49 66.62C17.63 67.79 19.67 69.66 21.07 70.76C23.22 72.45 24.33 73.08 28.61 74.96C32.9 76.83 34.15 77.23 36.82 77.64C38.54 77.91 41.4 78.14 43.16 78.16C44.92 78.18 47.89 77.9 49.8 77.57C51.71 77.24 54.85 76.33 56.79 75.56C58.71 74.79 61.2 73.63 62.28 72.97C63.35 72.31 65.33 70.89 66.63 69.8C67.93 68.72 69.84 66.93 70.81 65.82C71.82 64.72 73.22 62.97 73.94 61.93C74.65 60.89 76.01 58.22 77 55.95C78.17 53.27 78.99 50.89 79.32 49.08C79.65 47.57 79.97 44.94 80.08 43.22C80.19 41.51 80.08 38.6 79.81 36.72C79.42 33.74 79.25 33.29 78.46 32.94C77.76 32.64 77.44 32.69 77.15 33.2C76.9 33.58 76.87 34.61 77.07 35.6C77.24 36.58 77.44 38.28 77.51 39.4C77.57 40.47 77.56 41.44 77.45 41.51C77.39 41.56 71.7 41.36 64.82 41.06C57.93 40.75 52.19 40.42 52 40.33C51.81 40.25 51.38 39.43 50.29 36.77L59.87 28.08C65.1 23.32 69.54 19.44 69.71 19.55C69.9 19.64 70.8 20.85 71.72 22.27C72.65 23.65 73.92 25.9 74.53 27.25C75.12 28.56 75.81 29.72 76 29.81C76.22 29.9 76.67 29.91 76.99 29.79C77.3 29.66 77.65 29.29 77.78 29.01C77.91 28.69 77.32 27.04 76.46 25.32C75.62 23.64 74.24 21.31 73.41 20.12C72.56 18.96 71.2 17.27 70.35 16.38C69.52 15.45 67.7 13.76 66.35 12.64C64.44 11.02 62.96 10.11 59.7 8.54C57.02 7.21 54.56 6.22 52.83 5.8C51.36 5.38 48.86 4.92 47.28 4.76C45.7 4.59 43.03 4.52 41.35 4.6C39.66 4.69 37.08 4.99 35.59 5.32C34.11 5.61 31.42 6.46 29.61 7.17C27.83 7.89 24.98 9.35 23.29 10.45C21.62 11.52 19.3 13.32 18.13 14.46C16.95 15.6 15.07 17.66 14.02 19.04C12.94 20.41 11.37 22.88 10.53 24.46C9.57 26.22 8.64 28.51 8.11 30.34C7.65 31.98 7.06 34.54 6.84 35.98C6.62 37.43 6.45 39.71 6.43 41.06C6.4 42.4 6.6 44.7 7.17 48.89L5.55 48.89C4.69 48.89 3.63 48.84 3.16 48.79C2.56 48.71 2.34 48.43 2.16 47.56C2.06 46.92 1.91 45.05 1.82 43.36C1.73 41.67 1.78 38.99 1.94 37.41C2.11 35.83 2.44 33.69 2.67 32.66C2.89 31.63 3.14 30.46 3.23 30.09C3.32 29.71 4.22 27.48 5.2 25.14C6.26 22.63 7.7 19.85 8.64 18.38ZM6.89 51.5C10.53 51.59 13.67 51.8 13.88 52C14.09 52.21 14.14 52.68 13.96 53.09C13.8 53.47 11.75 55.66 9.41 57.93C7.06 60.21 4.98 62.15 4.8 62.22C4.6 62.32 4.15 62.16 3.73 61.91C3.33 61.62 2.44 60.06 1.72 58.44C1 56.81 0.28 54.69 0.12 53.69C-0.02 52.72 -0.06 51.77 0.09 51.61C0.22 51.48 3.3 51.4 6.89 51.5ZM16.51 19.87C17.57 18.57 18.68 17.4 18.92 17.28C19.25 17.13 21.85 19.76 36.65 35.95L35.03 39.67L32.45 39.56C31.06 39.47 27.57 39.3 24.73 39.19C21.89 39.07 19.26 39.08 18.9 39.23C18.4 39.42 18.27 39.63 18.33 40.18C18.4 40.54 18.6 41.01 18.84 41.15C19.07 41.33 22.8 41.64 27.12 41.88C31.46 42.09 35 42.32 34.97 42.38C34.95 42.41 35.23 43.25 36.23 46.01L26.76 54.63C21.57 59.38 17.25 63.27 17.15 63.31C17.08 63.31 16.44 62.62 15.77 61.76C15.1 60.87 14.26 59.64 13.37 57.79L14.79 56.35C15.83 55.34 16.33 54.54 16.56 53.67C16.78 52.82 16.71 51.97 16.3 51.19C15.9 50.38 15.32 49.82 14.5 49.46C13.87 49.19 12.57 48.99 9.93 49.01L9.65 47.94C9.49 47.35 9.28 45.6 9.14 44.04C9.03 42.49 9.11 41.18 9.29 41.11C9.51 41.05 10.74 41.06 12.05 41.15C14.21 41.27 14.46 41.23 14.83 40.38C15.12 39.71 15.09 39.36 14.64 39.09C14.32 38.88 12.96 38.65 9.1 38.47L9.22 37.32C9.28 36.67 9.58 35.04 9.85 33.73C10.21 32.05 11.01 29.96 12.47 26.81C14.12 23.29 15.01 21.76 16.51 19.87ZM22.13 14.41C22.66 13.96 24.25 12.89 25.7 11.99C27.14 11.08 29.93 9.78 31.92 9.08C33.89 8.36 37.11 7.59 39.05 7.36C41 7.12 42.83 7.05 43.14 7.19C43.43 7.31 43.66 7.64 43.62 7.89C43.61 8.11 43.3 13.87 42.36 32.93L40.61 33.59C39.67 33.93 38.78 34.18 38.59 34.1C38.4 34.01 34.42 29.72 29.73 24.56L21.2 15.16L22.13 14.41ZM37.99 47.91L41.55 49.65L40.98 62.28C40.7 69.2 40.4 75.04 40.3 75.26C40.2 75.48 39.19 75.49 37.87 75.25C36.62 75 34.27 74.39 32.58 73.87C30.43 73.2 28.64 72.41 26.65 71.29C25.1 70.38 23.31 69.22 22.69 68.76C22.08 68.27 20.98 67.34 20.29 66.7C19.17 65.73 19.04 65.44 19.44 64.94C19.69 64.64 23.98 60.66 37.99 47.91ZM47.77 7.34C48.47 7.45 49.76 7.68 50.63 7.84C51.49 8.02 53.64 8.66 55.43 9.3C57.36 10.03 59.54 11.05 60.86 11.9C62.07 12.65 64.07 14.09 65.26 15.06C66.47 16.07 67.44 17.02 67.42 17.24C67.45 17.44 63.23 21.41 48.79 34.62L44.99 33.18L45.56 20.55C45.86 13.59 46.2 7.74 46.3 7.52C46.37 7.29 47.04 7.2 47.77 7.34ZM40.4 36.39C41.1 35.98 42.33 35.66 43.17 35.65C44 35.63 45.11 35.82 45.62 36.04C46.15 36.28 47.02 36.96 47.58 37.57C48.13 38.19 48.73 39.32 48.91 40.11C49.11 41.02 49 42.14 48.65 43.18C48.28 44.27 47.76 45.07 47.11 45.59C46.58 46.03 45.63 46.59 44.97 46.79C44.31 47.03 43.12 47.07 42.35 46.96C41.42 46.8 40.58 46.43 39.84 45.83C39.22 45.37 38.53 44.62 38.29 44.14C38.07 43.7 37.76 42.7 37.64 41.94C37.49 40.82 37.62 40.17 38.28 38.84C38.91 37.65 39.54 36.91 40.4 36.39ZM48.08 48.45L55.03 56.14C58.87 60.33 62.79 64.67 65.42 67.59L63.95 68.71C63.12 69.32 61.2 70.55 59.66 71.41C58.13 72.24 55.78 73.32 54.45 73.79C53.14 74.23 50.77 74.84 49.19 75.09C47.65 75.36 45.63 75.6 44.75 75.63C43.85 75.65 43.1 75.55 43.07 75.46C43.05 75.33 43.26 69.61 43.56 62.73C43.9 55.86 44.22 50.07 44.32 49.92C44.4 49.73 45.29 49.33 48.08 48.45ZM51.69 43.01L64.49 43.61C71.54 43.96 77.32 44.38 77.38 44.52C77.43 44.65 77.29 45.83 77.11 47.1C76.91 48.52 76.15 51.11 75.15 53.64C73.96 56.72 73.09 58.44 71.88 60.28C70.96 61.6 69.59 63.37 68.82 64.19C67.96 65.13 67.32 65.56 67.09 65.39C66.87 65.22 63.85 61.99 60.36 58.13C56.88 54.32 53.1 50.19 51.95 48.94L49.93 46.71L51.69 43.01Z" stroke="#000000" stroke-opacity="0" stroke-width="0.095833"/>
	</g>
</svg>
