<svg width="80.000000" height="81.000000" viewBox="0 0 80 81" fill="none" xmlns="http://www.w3.org/2000/svg" xmlns:xlink="http://www.w3.org/1999/xlink">
	<desc>
			Created with Pixso.
	</desc>
	<defs>
		<linearGradient x1="40.000000" y1="0.000000" x2="40.000000" y2="81.000000" id="paint_linear_1_132_0" gradientUnits="userSpaceOnUse">
			<stop stop-color="#FFFFFF"/>
			<stop offset="1.000000" stop-color="#FFFFFF" stop-opacity="0.000000"/>
		</linearGradient>
	</defs>
	<g opacity="0.020000">
		<path id="Vector" d="M29.94 39.58L29.82 39.58C24.51 39.56 19.52 37.49 15.78 33.75C12.04 30.01 9.99 25.05 10.01 19.78C10.01 8.87 18.96 0 29.94 0C40.94 0 49.88 8.87 49.88 19.79C49.88 30.7 40.94 39.58 29.94 39.58ZM56.47 35.89L56.35 35.89C54.5 35.89 52.7 35.56 51.06 34.95C54.18 30.68 56.02 25.43 56.02 19.77C56.02 14.4 54.38 9.4 51.55 5.25C53.11 4.76 54.75 4.47 56.47 4.47C65.2 4.47 72.29 11.51 72.29 20.18C72.29 28.85 65.2 35.89 56.47 35.89ZM43.77 44.23C47.45 42.68 51.84 41.75 56.47 41.75C69.22 41.75 80 48.7 80 56.96C80 63.88 72.78 66.36 66.06 67.26C65.86 56.88 56.72 47.97 43.77 44.23ZM29.95 48.42C13.71 48.42 0 57.22 0 67.65C0 79.61 17.09 81 29.95 81C37.36 81 59.9 81 59.9 67.57C59.9 57.19 46.19 48.42 29.95 48.42Z" fill="url(#paint_linear_1_132_0)" fill-opacity="1.000000" fill-rule="evenodd"/>
	</g>
</svg>
